<?xml version="1.0" standalone="no"?>
<!DOCTYPE svg PUBLIC "-//W3C//DTD SVG 1.1//EN" "http://www.w3.org/Graphics/SVG/1.1/DTD/svg11.dtd">
<svg xmlns="http://www.w3.org/2000/svg">
<metadata>Generated by Fontastic.me</metadata>
<defs>
<font id="snaxicon" horiz-adv-x="512">
<font-face font-family="snaxicon" units-per-em="512" ascent="480" descent="-32"/>
<missing-glyph horiz-adv-x="512" />

<glyph glyph-name="image" unicode="&#57344;" d="M30 482l0-452 452 0 0 452z m422-422l-392 0 0 60 392 0z m-392 91l0 301 392 0 0-301z m368 55l-21-22-73 71-47-50-75 132-102-149-25 17 130 189 78-139 40 43z"/>
<glyph glyph-name="gallery" unicode="&#57345;" d="M392 211l0 301-392 0 0-392 392 0z m-362 271l331 0 0-241-22 0-78 100-34-37-68 117-108-180-21 0z m271-241l-215 0 72 121 63-108 38 41z m-271-90l0 60 331 0 0-60z m482 271l0-392-392 0 0 60 31 0 0-30 331 0 0 332-60 0 0 30z"/>
<glyph glyph-name="embed" unicode="&#57346;" d="M391 303l-28-28-22 21 29 28c29 30 29 77 0 107-30 29-77 29-107 0l-90-90c-29-30-29-77 0-107 30-29 77-29 107 0l21-21c-21-21-47-31-74-31-28 0-54 10-75 31-41 41-41 108 0 149l90 90c41 41 108 41 149 0 41-41 41-108 0-149z m-209-33l-4-4 21-21 4 4c30 29 77 29 107 0 29-30 29-77 0-107l-91-91c-30-29-77-29-107 0-29 30-29 77 0 107l32 31-21 22-32-32c-41-41-41-108 0-149 20-21 47-31 74-31 27 0 54 10 75 31l91 91c41 41 41 108 0 149-41 41-108 41-149 0z"/>
<glyph glyph-name="spinner" unicode="&#57348;" d="M432 272l-80 0c-9 0-16-7-16-16 0-9 7-16 16-16l80 0c9 0 16 7 16 16 0 9-7 16-16 16z m-256-16c0 9-7 16-16 16l-80 0c-9 0-16-7-16-16 0-9 7-16 16-16l80 0c9 0 16 7 16 16z m80-80c-9 0-16-7-16-16l0-80c0-9 7-16 16-16 9 0 16 7 16 16l0 80c0 9-7 16-16 16z m0 272c-9 0-16-7-16-16l0-80c0-9 7-16 16-16 9 0 16 7 16 16l0 80c0 9-7 16-16 16z m69-152c5-8 15-10 22-6l70 40c7 4 10 14 5 22-4 8-14 10-21 6l-70-40c-7-5-10-14-6-22z m-138-80c-5 8-14 10-22 6l-69-40c-8-5-11-14-6-22 4-8 14-10 22-6l69 40c8 5 10 14 6 22z m131-35c-4 8-14 10-22 6-8-5-10-14-6-22l40-69c5-8 14-11 22-6 8 4 10 14 6 22z m-136 235c-4 8-14 11-22 6-8-4-10-14-6-22l40-69c5-8 14-10 22-6 8 5 10 14 6 22z m114-91c8-4 17-2 22 6l40 69c4 8 2 18-6 22-8 5-17 2-22-6l-40-69c-4-8-2-17 6-22z m-80-138c-8 4-17 1-22-6l-40-70c-4-7-2-17 6-21 8-5 17-2 22 5l40 70c4 7 2 17-6 22z m200-5l-69 40c-8 4-17 2-22-6-4-8-2-17 6-22l69-40c8-4 18-2 22 6 5 8 2 17-6 22z m-320 148l69-40c8-4 17-2 22 6 4 8 2 17-6 22l-69 40c-8 4-18 2-22-6-5-8-2-17 6-22z"/>
<glyph glyph-name="delete" unicode="&#57349;" d="M329 451c-6 26-30 46-58 46-28 0-51-19-58-46l-108 0 0-30 332 0 0 30z m-58 16c12 0 21-7 26-16l-52 0c5 9 15 16 26 16z m121-75l30 0 0-317c0-25-21-45-46-45l-210 0c-25 0-46 20-46 45l0 317 31 0 0-317c0-8 6-15 15-15l210 0c9 0 16 7 16 15l0 317z m-151-31l0-241-30 0 0 241z m90 0l0-241-30 0 0 241z"/>
<glyph glyph-name="angle-up" unicode="&#57350;" d="M493 154l-22-22-215 216-215-216-22 22 237 236 237-236z"/>
<glyph glyph-name="angle-down" unicode="&#57351;" d="M493 359l-237-236-237 236 22 21 215-215 215 215z"/>
<glyph glyph-name="facebook" unicode="&#57354;" d="M384 509l0-76-45 0c-17 0-28-3-33-10-6-7-9-17-9-31l0-54 84 0-11-85-73 0 0-216-87 0 0 216-73 0 0 85 73 0 0 62c0 36 10 63 29 83 20 19 47 29 80 29 28 0 49-1 65-3z"/>
<glyph glyph-name="twitter" unicode="&#57355;" d="M481 395c-13-18-28-34-46-47 0-3 0-7 0-12 0-25-3-50-11-74-7-25-18-49-33-71-14-23-32-43-52-61-21-17-45-31-74-41-29-11-60-16-92-16-52 0-99 14-142 42 7-1 14-2 22-2 43 0 81 14 115 40-20 0-38 6-54 18-16 12-27 27-33 46 7-1 13-2 18-2 8 0 16 1 24 4-21 4-39 15-53 31-14 17-21 37-21 59l0 1c13-7 27-11 42-11-13 8-23 19-30 32-8 14-11 29-11 44 0 17 4 33 12 47 23-28 51-51 84-68 33-17 69-27 107-29-2 8-3 15-3 22 0 25 9 47 27 65 18 18 40 27 66 27 26 0 49-10 67-29 21 4 40 11 59 22-7-22-21-39-41-51 18 2 35 7 53 14z"/>
<glyph glyph-name="pinterest" unicode="&#57356;" d="M475 256c0-40-9-77-29-110-20-34-46-60-80-80-33-20-70-29-110-29-21 0-42 3-62 9 11 17 18 33 22 47 2 6 7 26 15 60 4-8 11-14 21-19 10-6 21-9 33-9 23 0 43 7 62 20 18 13 32 31 42 54 9 23 14 48 14 77 0 22-5 42-17 61-11 19-27 35-49 47-21 12-46 18-73 18-20 0-38-3-56-9-17-5-32-12-44-22-12-9-22-19-31-31-9-12-15-24-19-37-4-13-6-26-6-38 0-20 4-38 11-53 8-15 19-25 34-31 5-3 9-1 10 5 1 2 2 5 3 9 1 5 2 8 2 9 1 4 0 8-3 12-10 12-15 26-15 43 0 29 10 54 30 74 20 21 46 31 78 31 29 0 51-8 68-23 16-16 24-36 24-61 0-32-7-60-20-83-13-22-30-34-50-34-12 0-21 5-28 13-7 8-9 18-7 30 2 6 4 15 8 26 4 12 6 21 9 30 2 8 3 16 3 21 0 10-3 18-8 24-5 6-12 10-22 10-12 0-22-6-30-17-8-11-12-24-12-40 0-14 2-26 7-35l-28-120c-4-13-5-30-4-50-39 17-71 44-95 80-24 36-36 77-36 121 0 40 9 77 29 110 20 34 46 60 80 80 33 20 70 29 110 29 40 0 77-9 110-29 34-20 60-46 80-80 20-33 29-70 29-110z"/>
<glyph glyph-name="share" unicode="&#57353;" d="M407 151c-21 0-43-9-55-25l-177 106c3 6 6 15 6 24 0 9-3 18-6 24l174 106c15-16 37-25 58-25 42 0 75 34 75 76 0 42-33 75-75 75-43 0-76-33-76-75 0-9 3-18 6-24l-177-106c-12 15-34 24-55 24-42 0-75-33-75-75 0-42 33-75 75-75 21 0 43 9 55 24l174-106c-3-9-6-15-6-24 0-42 33-75 76-75 42 0 75 33 75 75 0 42-30 76-72 76z m0 331c24 0 45-21 45-45 0-24-21-45-45-45-25 0-46 21-46 45 0 24 21 45 46 45z m-302-271c-24 0-45 21-45 45 0 24 21 45 45 45 25 0 46-21 46-45 0-24-21-45-46-45z m302-181c-25 0-46 21-46 45 0 24 21 45 46 45 24 0 45-21 45-45 0-24-21-45-45-45z"/>
<glyph glyph-name="more-horizontal" unicode="&#57357;" d="M136 296c-22 0-40-18-40-40 0-22 18-40 40-40 22 0 40 18 40 40 0 22-18 40-40 40z m240 0c-22 0-40-18-40-40 0-22 18-40 40-40 22 0 40 18 40 40 0 22-18 40-40 40z m-120 0c-22 0-40-18-40-40 0-22 18-40 40-40 22 0 40 18 40 40 0 22-18 40-40 40z"/>
<glyph glyph-name="more-vertical" unicode="&#57358;" d="M296 376c0 22-18 40-40 40-22 0-40-18-40-40 0-22 18-40 40-40 22 0 40 18 40 40z m0-240c0 22-18 40-40 40-22 0-40-18-40-40 0-22 18-40 40-40 22 0 40 18 40 40z m0 120c0 22-18 40-40 40-22 0-40-18-40-40 0-22 18-40 40-40 22 0 40 18 40 40z"/>
<glyph glyph-name="warning" unicode="&#57359;" d="M255 467l-249-437 500 0z m0-61l199-346-396 0z m16-223l-30 0 0 118 30 0z m15-63c0-17-13-31-30-31-17 0-30 14-30 31 0 16 13 30 30 30 17 0 30-14 30-30z"/>
<glyph glyph-name="close" unicode="&#57360;" d="M277 256l200-200-21-21-200 200-200-200-21 21 200 200-200 200 21 21 200-200 200 200 21-21z"/>
<glyph glyph-name="arrow-up" unicode="&#57361;" d="M256 422l-196-211 121 0 0-121 150 0 0 121 121 0z m45-181l0-121-90 0 0 121-81 0 126 135 126-135z"/>
<glyph glyph-name="arrow-down" unicode="&#57362;" d="M331 301l0 121-150 0 0-121-121 0 196-211 196 211z m-201-30l81 0 0 121 90 0 0-121 81 0-126-135z"/>
<glyph glyph-name="text" unicode="&#57363;" d="M512 452l0-30-512 0 0 30z m-90-121l-422 0 0-30 422 0z m-422-150l512 0 0 30-512 0z m0-121l301 0 0 30-301 0z"/>
<glyph glyph-name="add" unicode="&#57364;" d="M482 241l-211 0 0-211-30 0 0 211-211 0 0 30 211 0 0 211 30 0 0-211 211 0z"/>
<glyph glyph-name="meme" unicode="&#57365;" d="M30 482l0-452 452 0 0 452z m422-422l-392 0 0 392 392 0z m-332 60l272 0 0-30-272 0z m0 302l272 0 0-30-272 0z m181-121l-90 0-60 60 0-120c0-51 39-90 90-90l30 0c51 0 90 39 90 90l0 120z m30-60c0-33-27-60-60-60l-30 0c-33 0-60 27-60 60l0 30 150 0z"/>
<glyph glyph-name="open-list" unicode="&#57367;" d="M181 422l331 0 0-30-331 0z m0-151l331 0 0-30-331 0z m259-90l-187 0c-39 0-72-33-72-73l0-9c0-36 33-69 72-69l190 0c39 0 72 33 72 72l0 9c-3 37-36 70-75 70z m-48-91l-31 0 0-30-30 0 0 30-30 0 0 30 30 0 0 31 30 0 0-31 31 0z m-302 271l0 91-30 0 0 30 60 0 0-121z m49-78c0-15-9-27-25-39l-18-18 43 0 0-30-94 0 0 24 42 42c6 6 9 12 9 15 0 3-3 6-9 6-9 0-21-6-33-15l-12 30c18 12 33 18 54 18 21 0 43-12 43-33z"/>
<glyph glyph-name="open-ranked-list" unicode="&#57368;" d="M75 410l42-43 22 22-43 42-21 21-63-63 21-22z m0-157l42 42 22-21-43-42-21-21-63 63 21 21z m106 169l331 0 0-30-331 0z m0-151l331 0 0-30-331 0z m259-90l-187 0c-39 0-72-33-72-73l0-9c0-36 33-69 72-69l190 0c39 0 72 33 72 72l0 9c-3 37-36 70-75 70z m-48-91l-31 0 0-30-30 0 0 30-30 0 0 30 30 0 0 31 30 0 0-31 31 0z"/>
<glyph glyph-name="ranked-list" unicode="&#57369;" d="M75 410l42-43 22 22-43 42-21 21-63-63 21-22z m106 12l331 0 0-30-331 0z m0-302l331 0 0-30-331 0z m331 151l-331 0 0-30 331 0m-437 12l42 42 22-21-43-42-21-21-63 63 21 21z m0-145l42-42 22 21-64 64-21-21-42-43 21-21z"/>
<glyph glyph-name="personality-quiz" unicode="&#57347;" d="M473 211l-51 87c0 0 0 12 0 12 0 109-88 199-196 199-109 0-196-87-196-196 0-54 24-105 60-138l0-85c0-18 12-30 30-30l181-60c18 0 30 12 30 30l0 48 61-18c18 0 30 15 30 30l0 91 36 0c18 0 24 12 15 30z m-81 0l0-121-91 27 0-84-175 57-6 0 0 97-9 9c-33 33-51 75-51 117 0 91 76 163 166 163 90 0 166-75 166-169l0-21 45-78-45 0z m-208 165c15 16 36 22 60 22 24 0 42-6 57-22 15-12 21-33 21-57 0-24-6-42-21-54-15-12-36-18-66-18l0-48-30 0 0 72 15 0c24 0 42 3 51 9 9 6 18 21 18 42 0 15-3 27-12 33-9 6-21 12-36 12-15 0-24-3-33-9-9-9-12-21-12-36l-30 0c-3 24 6 42 18 54z m36-250c-6 0-12 4-15 7-3 3-6 9-6 15 0 6 3 12 6 15 3 3 9 6 15 6 6 0 12-3 15-6 3-6 6-9 6-15 0-6-3-12-6-15-3-7-9-7-15-7z"/>
<glyph glyph-name="trivia-quiz" unicode="&#57370;" d="M482 512l-482 0 0-512 512 0 0 512z m-452-30l211 0 0-211-211 0z m0-452l0 211 211 0 0-211z m452 0l-211 0 0 211 211 0z m0 241l-211 0 0 211 211 0z m-283 63l-42 42 42 43-21 21-42-42-43 42-21-21 42-43-42-42 21-21 43 42 42-42z m313-102l-3 3-133-133-42 43-21-22 63-63 22 21 114 115z"/>
<glyph glyph-name="poll" unicode="&#57371;" d="M482 271l-60 60-362 0 0 30 181 0 39 40 21 21-60 60-211 0 0-422 301 0 39 39 22 21-61 61-271 0 0 30 362 0z m-422 181l169 0 30-30-30-30-169 0z m259-301l30-31-30-30-259 0 0 61z m91 90l-350 0 0 60 350 0 30-30z"/>
<glyph glyph-name="success" unicode="&#57352;" d="M464 459l-266-407-148 133 20 22 122-109 247 377z"/>
<glyph glyph-name="quiz-checkmark" unicode="&#57372;" d="M464 491l-266-407-148 133 20 22 122-109 247 377z"/>
<glyph glyph-name="quiz-crossmark" unicode="&#57373;" d="M277 288l200-200-21-21-200 200-200-200-21 21 200 200-200 200 21 21 200-200 200 200 21-21z"/>
<glyph glyph-name="missing-media" unicode="&#57374;" d="M437 392l-55 0-12 33c-6 15-24 27-39 27l-150 0c-15 0-33-12-39-27l-12-33-55 0c-24 0-45-22-45-46l0-241c0-24 21-45 45-45l362 0c24 0 45 21 45 45l0 241c0 24-21 46-45 46z m15-287c0-9-6-15-15-15l-362 0c-9 0-15 6-15 15l0 241c0 9 6 15 15 15l79 0 18 52c0 3 6 9 9 9l150 0c3 0 9-6 12-9l15-52 79 0c9 0 15-6 15-15z m-196 256c-66 0-120-54-120-120 0-66 54-121 120-121 66 0 120 55 120 121 0 66-54 120-120 120z m0-207c-48 0-87 39-87 87 0 48 39 87 87 87 48 0 87-39 87-87 0-48-39-87-87-87z"/>
<glyph glyph-name="q-a-tpl-text" unicode="&#57375;" d="M30 422l452 0 0-30-452 0z m0 0l452 0 0-30-452 0z m0-302l452 0 0-30-452 0z m0 151l452 0 0-30-452 0z"/>
<glyph glyph-name="q-a-tpl-grid-2" unicode="&#57376;" d="M0 422l0-151 241 0 0 151z m211-121l-181 0 0 91 181 0z m60 121l0-151 241 0 0 151z m211-121l-181 0 0 91 181 0z m-211-60l0-151 241 0 0 151z m211-121l-181 0 0 91 181 0z m-482 121l0-151 241 0 0 151z m211-121l-181 0 0 91 181 0z"/>
<glyph glyph-name="q-a-tpl-grid-3" unicode="&#57377;" d="M0 422l0-151 151 0 0 151z m120-121l-90 0 0 91 90 0z m61 121l0-151 150 0 0 151z m120-121l-90 0 0 91 90 0z m60 121l0-151 151 0 0 151z m121-121l-90 0 0 91 90 0z m-301-60l0-151 150 0 0 151z m120-121l-90 0 0 91 90 0z m60 121l0-151 151 0 0 151z m121-121l-90 0 0 91 90 0z m-482 121l0-151 151 0 0 151z m120-121l-90 0 0 91 90 0z"/>
<glyph glyph-name="list" unicode="&#57366;" d="M90 361l0 91-30 0 0 30 60 0 0-121z m91 61l331 0 0-30-331 0z m0-302l331 0 0-30-331 0z m0 151l331 0 0-30-331 0z m-70-169c15-3 28-15 28-33 0-24-19-39-49-39-18 0-36 6-48 15l15 30c9-12 18-18 30-18 9 0 12 3 12 9 0 6-3 9-12 9l-21 0 0 21 24 21-42 0 0 34 85 0 0-21-28-25z m28 181c0-15-9-27-25-39l-18-18 43 0 0-30-94 0 0 24 42 42c6 6 9 12 9 15 0 3-3 6-9 6-9 0-21-6-33-15l-12 30c18 12 33 18 54 18 21 0 43-12 43-33z"/>
<glyph glyph-name="expand" unicode="&#57378;" d="M120 361l136-210 136 210z"/>
<glyph glyph-name="collapse" unicode="&#57379;" d="M120 151l136 210 136-210z"/>
<glyph glyph-name="edit" unicode="&#57380;" d="M468 426l-43 42c-17 17-46 17-63 0l-273-273-52-159 158 53 273 273c17 18 17 46 0 64z m-375-314l20 59 58-58-59-20z m38 83l166 166 63-64-165-165-64 63z m187 187l22 22 63-64-22-22z m128 1l-21-21-64 63 22 22c6 6 15 6 21 0l42-42c6-6 6-16 0-22z"/>
<glyph glyph-name="upload" unicode="&#57381;" d="M512 309c0-71-57-128-128-128l-83 0 0 30 83 0c54 0 98 44 98 98 0 54-44 98-98 98-16 0-32-5-47-13l-11-6-8 9c-21 25-52 40-85 40-50 0-93-33-107-81l-4-13-13 2c-4 1-7 1-11 1-37 0-68-30-68-67 0-38 31-68 68-68l111 0 0-30-111 0c-54 0-98 44-98 98 0 55 46 100 101 97 21 55 73 91 132 91 38 0 73-15 100-41 17 7 34 11 51 11 71 0 128-58 128-128z m-191-64l21 22-86 86-86-86 21-22 50 50 0-235 30 0 0 235z"/>
<glyph glyph-name="audio" unicode="&#57382;" d="M181 504l0-278c-16 14-36 22-58 22-48 0-87-39-87-88 0-48 39-87 87-87 48 0 86 37 88 84l0 0c0 1 0 2 0 3 0 1 0 2 0 3l0 184 271-53 0-141c-16 14-36 23-58 23-48 0-88-40-88-88 0-49 40-88 88-88 48 0 87 38 88 86l0 0 0 353z m-58-401c-31 0-57 26-57 57 0 32 26 58 57 58 31 0 56-24 58-55l0-6c-2-30-27-54-58-54z m88 275l0 89 271-53 0-89z m213-348c-32 0-57 26-57 58 0 32 25 57 57 57 32 0 58-25 58-57 0-32-26-58-58-58z"/>
<glyph glyph-name="video" unicode="&#57383;" d="M256 512c-142 0-256-114-256-256 0-142 114-256 256-256 142 0 256 114 256 256 0 142-114 256-256 256z m0-482c-123 0-226 103-226 226 0 123 103 226 226 226 123 0 226-103 226-226 0-123-103-226-226-226z m105 226l-150 75 0-150z"/>
<glyph glyph-name="youtube" unicode="&#57384;" d="M366 256c0 7-3 12-9 15l-146 92c-6 4-12 4-19 0-6-3-9-8-9-16l0-182c0-8 3-13 9-16 3-2 6-3 9-3 4 0 7 1 10 3l146 92c6 3 9 8 9 15z m146 0c0-18 0-33 0-43 0-10-1-23-3-39-1-16-3-30-6-42-3-14-10-26-20-35-10-10-22-15-35-17-43-4-106-7-192-7-86 0-149 3-192 7-13 2-25 7-35 17-10 9-17 21-20 35-3 12-5 26-6 42-2 16-3 29-3 39 0 10 0 25 0 43 0 18 0 33 0 43 0 10 1 23 3 39 1 16 3 30 6 42 3 14 10 26 20 35 10 10 22 15 35 17 43 4 106 7 192 7 86 0 149-3 192-7 13-2 25-7 35-17 10-9 17-21 20-35 3-12 5-26 6-42 2-16 3-29 3-39 0-10 0-25 0-43z"/>
<glyph glyph-name="instagram" unicode="&#57385;" d="M329 256c0 20-7 37-21 52-15 14-32 21-52 21-20 0-37-7-52-21-14-15-21-32-21-52 0-20 7-37 21-52 15-14 32-21 52-21 20 0 37 7 52 21 14 15 21 32 21 52z m40 0c0-31-11-58-33-80-22-22-49-33-80-33-31 0-58 11-80 33-22 22-33 49-33 80 0 31 11 58 33 80 22 22 49 33 80 33 31 0 58-11 80-33 22-22 33-49 33-80z m30 117c0-7-2-13-7-18-5-6-12-8-19-8-7 0-13 2-18 8-6 5-8 11-8 18 0 7 2 14 8 19 5 5 11 7 18 7 7 0 14-2 19-7 5-5 7-12 7-19z m-143 63c-1 0-9 0-22 0-13 0-23 0-30 0-7 0-16 0-28-1-11 0-21-1-29-3-8-1-15-3-20-5-10-4-18-9-26-16-7-8-12-16-16-26-2-5-4-12-5-20-2-8-3-18-3-29-1-12-1-21-1-28 0-7 0-17 0-30 0-13 0-21 0-22 0-1 0-9 0-22 0-13 0-23 0-30 0-7 0-16 1-28 0-11 1-21 3-29 1-8 3-15 5-20 4-10 9-18 16-26 8-7 16-12 26-16 5-2 12-4 20-5 8-2 18-3 29-3 12-1 21-1 28-1 7 0 17 0 30 0 13 0 21 0 22 0 1 0 9 0 22 0 13 0 23 0 30 0 7 0 16 0 28 1 11 0 21 1 29 3 8 1 15 3 20 5 10 4 18 9 26 16 7 8 12 16 16 26 2 5 4 12 5 20 2 8 3 18 3 29 1 12 1 21 1 28 0 7 0 17 0 30 0 13 0 21 0 22 0 1 0 9 0 22 0 13 0 23 0 30 0 7 0 16-1 28 0 11-1 21-3 29-1 8-3 15-5 20-4 10-9 18-16 26-8 7-16 12-26 16-5 2-12 4-20 5-8 2-18 3-29 3-12 1-21 1-28 1-7 0-17 0-30 0-13 0-21 0-22 0z m219-180c0-44 0-74-1-91-2-39-14-70-35-92-22-21-53-33-92-35-17-1-47-1-91-1-44 0-74 0-91 1-39 2-70 14-92 35-21 22-33 53-35 92-1 17-1 47-1 91 0 44 0 74 1 91 2 39 14 70 35 92 22 21 53 33 92 35 17 1 47 1 91 1 44 0 74 0 91-1 39-2 70-14 92-35 21-22 33-53 35-92 1-17 1-47 1-91z"/>
<glyph glyph-name="vimeo" unicode="&#57386;" d="M488 364c-2-45-33-107-95-186-63-82-117-123-160-123-27 0-50 25-69 75-8 30-21 76-37 138-14 50-29 75-45 75-4 0-16-8-37-22l-22 28c5 4 15 13 31 27 16 15 29 26 37 33 30 27 53 41 69 42 18 2 33-3 44-16 11-12 19-31 23-58 9-55 15-90 19-106 10-48 22-72 34-72 10 0 25 16 44 46 20 31 30 55 31 71 3 26-7 39-31 39-11 0-22-2-34-7 23 75 66 111 131 109 48-1 70-32 67-93z"/>
<glyph glyph-name="spotify" unicode="&#57387;" d="M359 166c0 6-3 11-9 15-37 22-79 33-128 33-25 0-52-4-82-10-8-2-12-7-12-15 0-4 2-7 4-10 3-2 6-4 10-4 1 0 5 1 11 2 25 6 48 8 69 8 43 0 81-10 114-29 3-2 6-3 9-3 4 0 7 1 10 3 2 3 4 6 4 10z m27 62c0 7-3 13-10 17-45 27-97 40-157 40-29 0-58-4-86-12-9-2-14-8-14-18 0-5 2-9 5-12 3-3 8-5 12-5 2 0 5 1 11 2 23 7 47 10 72 10 53 0 99-12 139-36 5-2 8-3 11-3 5 0 9 1 12 5 3 3 5 7 5 12z m31 71c0 9-4 15-12 20-24 13-51 24-83 31-32 7-65 11-98 11-39 0-74-5-104-14-5-1-8-3-11-7-3-3-5-8-5-14 0-6 2-11 6-15 4-4 9-6 15-6 2 0 6 1 11 3 26 7 55 10 88 10 30 0 60-3 88-9 29-7 53-16 73-28 4-2 8-3 11-3 6 0 11 2 15 6 4 4 6 9 6 15z m58-43c0-40-9-77-29-110-20-34-46-60-80-80-33-20-70-29-110-29-40 0-77 9-110 29-34 20-60 46-80 80-20 33-29 70-29 110 0 40 9 77 29 110 20 34 46 60 80 80 33 20 70 29 110 29 40 0 77-9 110-29 34-20 60-46 80-80 20-33 29-70 29-110z"/>
<glyph glyph-name="soundcloud" unicode="&#57388;" d="M151 120l4 69-4 149c0 2-1 4-2 5-2 1-3 2-5 2-2 0-3-1-5-2-1-1-2-3-2-5l-4-149 4-69c1-2 1-3 3-5 1-1 2-2 4-2 4 0 6 3 7 7z m84 8l4 61-4 167c0 3-1 5-4 7-1 1-3 1-4 1-2 0-3 0-5-1-2-2-3-4-3-7l-1-2-3-165c0 0 1-23 4-68l0 0c0-2 0-3 1-5 2-2 4-3 7-3 2 0 4 1 6 3 1 1 2 3 2 5z m-298 97l6-36-6-36c-1-2-1-3-3-3-1 0-2 1-2 3l-5 36 5 36c0 2 1 3 2 3 2 0 2-1 3-3z m24 23l8-59-8-58c0-2-1-3-2-3-2 0-3 1-3 3l-7 58 7 59c0 2 1 3 3 3 1 0 2-1 2-3z m80-129z m-53 140l7-70-7-68c0-2-1-3-3-3-2 0-3 1-4 3l-6 68 6 70c1 2 2 3 4 3 2 0 3-1 3-3z m27 2l6-72-6-70c-1-2-2-4-4-4-3 0-4 2-4 4l-6 70 6 72c0 2 1 4 4 4 2 0 3-2 4-4z m26-5l6-67-6-70c0-3-1-5-4-5-1 0-2 0-3 1-1 1-1 2-1 4l-6 70 6 67c0 1 0 2 1 3 1 1 2 1 3 1 3 0 4-1 4-4z m110-136z m-83 177l6-108-6-70c0-2 0-3-1-4-1-1-2-2-4-2-3 0-4 2-5 6l-5 70 5 108c1 4 2 6 5 6 2 0 3-1 4-2 1-1 1-2 1-4z m27 25l6-134-6-69c0-2 0-3-1-4-1-1-3-2-4-2-4 0-6 2-6 6l-5 69 5 134c0 4 2 5 6 5 1 0 3 0 4-1 1-1 1-2 1-4z m28 11l5-144-5-69c0-4-2-6-6-6-4 0-6 2-6 6l-5 69 5 144c0 2 0 4 2 5 1 1 2 2 4 2 2 0 3-1 4-2 1-1 2-3 2-5z m112-212z m-56 214l4-146-4-68c0-2-1-4-3-5-1-2-3-3-5-3-1 0-3 1-4 2-2 2-3 3-3 6l-4 68 4 146c0 2 1 3 2 5 2 1 4 2 5 2 2 0 4-1 5-2 2-2 3-3 3-5z m28-6l4-140-4-68c0-2-1-4-2-5-2-2-4-3-6-3-2 0-4 1-5 3-2 1-3 3-3 5l-3 68 3 140c0 2 1 4 3 6 1 1 3 2 5 2 2 0 4-1 5-2 2-2 3-4 3-6z m60-140l-4-66c0-3 0-5-2-7-2-1-4-2-6-2-3 0-5 1-7 2-1 2-2 4-3 7l-1 32-2 34 3 181 0 1c1 3 2 5 4 7 2 1 3 2 6 2 1 0 3 0 4-1 3-2 4-4 4-8z m318 5c0-22-8-41-24-57-15-16-34-24-57-24l-224 0c-3 1-5 2-7 4-1 1-2 3-2 6l0 257c0 4 3 7 8 9 16 7 33 10 52 10 37 0 69-13 96-38 27-25 43-56 46-92 10 4 20 6 31 6 23 0 42-8 57-24 16-15 24-35 24-57z"/>
<glyph glyph-name="twitch" unicode="&#57389;" d="M256 388l0-124-41 0 0 124z m114 0l0-124-42 0 0 124z m0-217l72 72 0 228-341 0 0-300 93 0 0-62 62 62z m113 341l0-289-124-124-93 0-62-62-62 0 0 62-113 0 0 330 31 83z"/>
<glyph glyph-name="vk" unicode="&#57390;" d="M232 120l30 0c6 0 9 3 12 6 3 4 3 10 3 13 0 0 0 39 18 45 18 6 39-36 63-54 9-7 21-13 34-10l63 0c0 0 33 3 18 28-12 21-30 39-48 57-39 36-33 30 12 96 30 39 42 63 36 72-3 9-24 6-24 6l-73 0c-3 0-6 0-9-3-3-3-6-6-6-9-6-18-15-39-27-57-33-54-45-57-51-54-12 9-9 30-9 48 0 51 9 75-15 82-9 6-18 6-30 6-21 3-39 0-60-6-6-4-12-13-9-16 6 0 15-3 21-9 6-9 6-21 6-33 0 0 3-60-9-69-15-6-24 6-52 54-9 18-18 36-27 54 0 3-3 6-6 9-3 0-6 3-9 3l-69 0c0 0-9 0-15-3-3-3 0-12 0-12 30-66 66-129 114-186 31-36 76-55 118-58z"/>
<glyph glyph-name="dailymotion" unicode="&#57391;" d="M283 256c-36 0-63-30-63-63 0-36 27-63 66-63 33 0 57 27 57 60 0 39-27 66-60 66z m-283 226l0-482 482 0 0 482z m416-419l-73 0 0 27c-21-21-45-30-75-30-30 0-57 9-78 30-30 24-45 61-45 100 0 36 15 69 39 93 27 24 54 36 87 36 30 0 54-9 72-33l0 112 76 15 0-350z"/>
<glyph glyph-name="giphy" unicode="&#57392;" d="M361 361l0 31-30 0 0 30-30 0 0-91 91 0 0 30z m0-60l0-181-210 0 0 272 120 0 30 30-181 0 0-332 272 0 0 241z"/>
<glyph glyph-name="imgur" unicode="&#57393;" d="M392 512l-302 0c-51 0-90-39-90-90l0-302c0-48 39-90 90-90l302 0c51 0 90 42 90 90l0 302c0 51-39 90-90 90z m-151-392c-84 0-151 67-151 151 0 84 67 151 151 151 84 0 151-67 151-151 0-84-67-151-151-151z"/>
<glyph glyph-name="mixcloud" unicode="&#57394;" d="M364 196c0 9-3 18-9 24-6 6-12 12-18 15 0-6-3-12-6-21 0-3-3-6-6-9-3-3-6-3-9-3-3 0-3 0-6 0-6 0-9 3-9 9 0 6 0 9 0 15 3 9 6 21 6 33 0 18-6 36-15 51-9 12-21 24-36 33-15 9-33 15-51 15-18 0-36-6-54-18-18-12-31-24-37-42 16-3 31-12 43-24 3-3 3-6 3-12 0-6-3-9-6-12-3-3-6-3-9-3-3 0-9 0-15 3-10 12-25 18-40 18-15 0-30-6-39-15-9-9-18-27-18-42 0-15 6-30 18-39 12-9 24-15 39-15l232 0c12 0 21 3 30 12 9 9 12 15 12 27z m37 0c0-21-6-39-22-54-18-16-36-22-57-22l-232 0c-24 0-45 10-63 28-18 18-27 39-27 63 0 24 6 42 21 60 15 18 33 27 54 30 9 27 24 48 48 66 25 19 55 25 82 25 36 0 66-13 90-37 27-24 39-51 42-87 18-3 30-12 42-27 16-12 22-27 22-45z m54 0c0-27-6-48-21-73-3-6-9-6-15-6-3 0-6 0-9 3-3 3-6 6-6 13 0 6 0 9 3 12 9 15 15 33 15 51 0 18-6 36-15 51-3 3-3 9-3 12 0 6 3 9 6 12 3 3 9 3 12 3 6 0 9-3 12-6 15-24 21-45 21-72z m57 0c0-36-9-70-30-100-3-6-9-9-15-9-3 0-6 0-9 3-3 3-6 6-6 12 0 6 0 9 3 12 15 25 24 52 24 79 0 30-9 54-24 78-3 9-3 12-3 18 0 6 3 9 6 12 6 0 9 0 12 0 6 0 9-3 12-6 21-30 30-63 30-99z"/>
<glyph glyph-name="poll-binary" unicode="&#57395;" d="M247 509c-36 12-81-6-96-42-15 36-61 54-97 42-39-12-66-48-48-108 24-76 127-151 145-160 18 9 120 84 144 160 18 60-9 96-48 108z m21-99c-18-52-84-109-117-133-34 24-100 81-118 133-6 21-3 39 3 51 6 12 18 15 24 18 6 3 12 3 18 3 21 0 39-12 45-27 3-9 16-18 28-18 12 0 24 6 27 18 6 15 27 27 45 27 6 0 12 0 18-3 9-3 21-9 27-21 3-9 6-27 0-48z m244-389l-102 102 102 103-21 21-102-102-103 102-21-21 102-103-102-102 21-21 103 102 102-102z"/>
<glyph glyph-name="poll-versus" unicode="&#57396;" d="M256 512c-142 0-256-114-256-256 0-142 114-256 256-256 142 0 256 114 256 256 0 142-114 256-256 256z m0-482c-123 0-226 103-226 226 0 123 103 226 226 226 123 0 226-103 226-226 0-123-103-226-226-226z m166 241l0 45c0 24-21 45-46 45l-60 0c-24 0-45-21-45-45l0-60 121-45 0-45c0-9-6-15-16-15l-60 0c-9 0-15 6-15 15l0 45-30 0 0-45c0-24 21-46 45-46l60 0c25 0 46 22 46 46l0 60-121 45 0 45c0 9 6 15 15 15l60 0c10 0 16-6 16-15l0-45z m-196 90l-60-180-61 180-30 0 76-241 30 0 75 241z"/>
<glyph glyph-name="vote-crossmark" unicode="&#57397;" d="M500 434l-66 66-178-181-178 181-66-66 181-178-181-178 66-66 178 181 178-181 66 66-181 178z"/>
<glyph glyph-name="vote-love" unicode="&#57398;" d="M422 476c-64 18-142-9-166-69-24 60-102 87-166 69-66-18-111-81-81-184 42-132 217-256 247-271 30 18 205 142 247 271 30 103-15 166-81 184z"/>
<glyph glyph-name="vote-thumb-down" unicode="&#57399;" d="M166 187c-6-9-24-61-24-100 0-87 39-87 69-87 0 30 0 54 0 72 12 45 60 103 84 115z m-106 295l211 0c33 0 60-27 60-60l0-181c0-33-27-60-60-60l-211 0c-33 0-60 27-60 60l0 181c0 33 27 60 60 60z m332 0l60 0c18 0 30-15 30-30l0-241c0-18-12-30-30-30l-60 0c-19 0-31 12-31 30l0 241c0 15 12 30 31 30z"/>
<glyph glyph-name="vote-thumb-up" unicode="&#57400;" d="M346 325c6 9 24 61 24 100 0 87-39 87-69 87 0-30 0-54 0-72-9-45-60-100-84-115z m106-295l-211 0c-33 0-60 27-60 60l0 181c0 33 27 60 60 60l211 0c33 0 60-27 60-60l0-181c0-33-27-60-60-60z m-332 0l-60 0c-15 0-30 12-30 30l0 241c0 18 15 30 30 30l60 0c19 0 31-12 31-30l0-241c0-18-12-30-31-30z"/>
</font>
</defs>
</svg>
