<svg id="Layer_1" data-name="Layer 1" xmlns="http://www.w3.org/2000/svg" viewBox="0 0 238.78 238.78"><defs><style>.cls-2{fill:#796c83}</style></defs><circle cx="119.39" cy="119.39" r="115.62" fill="#fff" stroke="#796c83" stroke-linecap="round" stroke-linejoin="round" stroke-width="7.54"/><path class="cls-2" d="M167.61 163H80.15V75.56a4.45 4.45 0 0 0-8.89 0v91.91a4.45 4.45 0 0 0 4.45 4.45h91.91a4.45 4.45 0 1 0 0-8.89z" transform="translate(-2.27 -2.13)"/><path class="cls-2" d="M90.82 157.12h11.79s4.54 0 4.54-4.53v-31.53s0-4.54-4.54-4.54H90.82s-4.54 0-4.54 4.54v31.52s0 4.53 4.54 4.53zm24.94 0h11.79s4.54 0 4.54-4.53V90.44s0-4.54-4.54-4.54h-11.79s-4.54 0-4.54 4.54v62.14s0 4.53 4.54 4.53zm24.95 0h11.79s4.54 0 4.54-4.53v-44.23s0-4.54-4.54-4.54h-11.79s-4.54 0-4.54 4.54v44.23s0 4.53 4.54 4.53z" transform="translate(-2.27 -2.13)"/></svg>