<svg id="Layer_1" data-name="Layer 1" xmlns="http://www.w3.org/2000/svg" viewBox="0 0 238.78 238.78"><defs><style>.cls-2{fill:#796c83}</style></defs><circle cx="119.39" cy="119.39" r="115.62" fill="#fff" stroke="#796c83" stroke-linecap="round" stroke-linejoin="round" stroke-width="7.54"/><path class="cls-2" d="M158 70.58h-18.12v3.66a6.11 6.11 0 0 1-6.1 6.1h-24.56a6.11 6.11 0 0 1-6.1-6.1v-3.66H85a8.9 8.9 0 0 0-8.87 8.87v89.45a8.9 8.9 0 0 0 8.87 8.88h73a8.9 8.9 0 0 0 8.87-8.87V79.46a8.9 8.9 0 0 0-8.87-8.88zM148.78 147a6.5 6.5 0 0 1-6.49 6.48h-41.58a6.5 6.5 0 0 1-6.49-6.48v-42.59a6.5 6.5 0 0 1 6.49-6.48h41.58a6.5 6.5 0 0 1 6.49 6.48V147z" transform="translate(-2.11 -2.11)"/><path class="cls-2" d="M109.22 76.89h24.56a2.66 2.66 0 0 0 2.65-2.65v-6.37a2.65 2.65 0 0 0-2.65-2.65h-24.56a2.65 2.65 0 0 0-2.65 2.65v6.36a2.66 2.66 0 0 0 2.65 2.65z" transform="translate(-2.11 -2.11)"/></svg>