<svg viewBox="0 0 161 25" xmlns="http://www.w3.org/2000/svg"><defs><style>.cls-1{fill:#e13345}.cls-2{fill:#039}</style></defs><path class="cls-1" d="M77.34 5.78v14.76a8.45 8.45 0 0 1-.12 1.44 3.21 3.21 0 0 1-.45 1.19 2.36 2.36 0 0 1-.89.81 3 3 0 0 1-1.43.3h-1.12v-1.41h.45a2.15 2.15 0 0 0 .42 0q1 0 1.23-.56a3.33 3.33 0 0 0 .26-1.4V5.78h1.65zM75.69.59v2.65V.59zM88.96 5.97a6 6 0 0 1 2 1.55 6.69 6.69 0 0 1 1.23 2.27 9.33 9.33 0 0 1 0 5.53 6.7 6.7 0 0 1-1.23 2.27 5.82 5.82 0 0 1-2 1.53 6.94 6.94 0 0 1-5.48 0 5.82 5.82 0 0 1-2-1.53 6.69 6.69 0 0 1-1.23-2.27 9.33 9.33 0 0 1 0-5.53 6.69 6.69 0 0 1 1.21-2.28 6 6 0 0 1 2-1.55 6.79 6.79 0 0 1 5.48 0l.02.01zm-4.83 1.3a4.55 4.55 0 0 0-1.48 1.31 6 6 0 0 0-.87 1.86 7.53 7.53 0 0 0 0 4.22 5.94 5.94 0 0 0 .89 1.85 4.54 4.54 0 0 0 1.48 1.31 4.55 4.55 0 0 0 4.14 0 4.54 4.54 0 0 0 1.48-1.31 5.93 5.93 0 0 0 .89-1.85 7.54 7.54 0 0 0 0-4.22 5.93 5.93 0 0 0-.89-1.85 4.55 4.55 0 0 0-1.48-1.31 4.56 4.56 0 0 0-4.14 0l-.02-.01zM104.52 19.31v-2.44h-.06a4.69 4.69 0 0 1-1.9 2.08 5.42 5.42 0 0 1-2.76.72 6 6 0 0 1-2.19-.35 3.65 3.65 0 0 1-1.47-1 4.09 4.09 0 0 1-.82-1.6 8 8 0 0 1-.26-2.15V5.78h1.65v8.81a4.4 4.4 0 0 0 .85 2.78 4.26 4.26 0 0 0 4.6.48 3.89 3.89 0 0 0 1.3-1.22 5.51 5.51 0 0 0 .73-1.74 8.57 8.57 0 0 0 .24-2V5.78h1.65v13.53h-1.56zM110.68 5.78v3.17h.05a5.19 5.19 0 0 1 2-2.54 5.12 5.12 0 0 1 3.16-.81v1.65a5 5 0 0 0-2 .3 4.52 4.52 0 0 0-2.62 2.57 5.23 5.23 0 0 0-.37 2v7.21h-1.74V5.78h1.52zM119.46 5.78v2.33h.05a4 4 0 0 1 1.68-2 4.92 4.92 0 0 1 2.69-.67 6.68 6.68 0 0 1 2.37.37 3.76 3.76 0 0 1 1.53 1 3.87 3.87 0 0 1 .81 1.64 9.23 9.23 0 0 1 .24 2.17v8.7h-1.65v-8.45a7.82 7.82 0 0 0-.16-1.61 3.42 3.42 0 0 0-.55-1.3 2.67 2.67 0 0 0-1.06-.86 3.9 3.9 0 0 0-1.66-.31 4.21 4.21 0 0 0-1.77.35 3.84 3.84 0 0 0-1.31 1 4.46 4.46 0 0 0-.84 1.47 6 6 0 0 0-.37 1.83v7.89h-1.6V5.78h1.6zM132.3 7.88a3.88 3.88 0 0 1 1.16-1.44 4.84 4.84 0 0 1 1.69-.81 8.24 8.24 0 0 1 2.13-.19 9.53 9.53 0 0 1 1.78.17 4.33 4.33 0 0 1 1.6.64 3.5 3.5 0 0 1 1.15 1.32 4.77 4.77 0 0 1 .45 2.21v7.18a.87.87 0 0 0 1 1 1.27 1.27 0 0 0 .52-.1v1.39l-.51.08a4.89 4.89 0 0 1-.56 0 2.5 2.5 0 0 1-1-.17 1.35 1.35 0 0 1-.59-.49 1.8 1.8 0 0 1-.27-.75 6.35 6.35 0 0 1-.07-1h-.05a11.12 11.12 0 0 1-.9 1.17 4.5 4.5 0 0 1-1 .85 4.71 4.71 0 0 1-1.37.5 7.05 7.05 0 0 1-1.72.18 6.79 6.79 0 0 1-1.77-.22 4 4 0 0 1-1.44-.71 3.38 3.38 0 0 1-1-1.23 4.1 4.1 0 0 1-.35-1.77 3.5 3.5 0 0 1 .63-2.21 4 4 0 0 1 1.66-1.22 9.52 9.52 0 0 1 2.33-.59l2.66-.23q.52-.05.92-.13a1.6 1.6 0 0 0 .65-.27 1.26 1.26 0 0 0 .43-.6 2.31 2.31 0 0 0 .14-.89 3 3 0 0 0-.27-1.38 2.18 2.18 0 0 0-.76-.85 3.07 3.07 0 0 0-1.13-.43 7.63 7.63 0 0 0-1.38-.12 4.16 4.16 0 0 0-2.57.75 2.92 2.92 0 0 0-1 2.4h-1.65a5.49 5.49 0 0 1 .46-2.04zm8.26 4a.94.94 0 0 1-.6.42 6.12 6.12 0 0 1-.79.18q-1 .18-2.16.33a11.88 11.88 0 0 0-2 .43 4 4 0 0 0-1.51.83 2 2 0 0 0-.59 1.53 2.4 2.4 0 0 0 .25 1.11 2.69 2.69 0 0 0 .67.84 2.92 2.92 0 0 0 1 .54 3.55 3.55 0 0 0 1.13.18 5.67 5.67 0 0 0 1.81-.29 4.44 4.44 0 0 0 1.51-.84 4.08 4.08 0 0 0 1-1.34 4 4 0 0 0 .38-1.78v-2.1l-.1-.04zM147.23.59v18.72h-1.65V.59h1.65zM158.19 8.44a2.68 2.68 0 0 0-.73-1 3.22 3.22 0 0 0-1.11-.54 5.09 5.09 0 0 0-1.34-.17 5.44 5.44 0 0 0-1.11.12 3.44 3.44 0 0 0-1 .39 2.23 2.23 0 0 0-.76.72 2 2 0 0 0-.29 1.1 1.54 1.54 0 0 0 .27.93 2.44 2.44 0 0 0 .7.64 4.39 4.39 0 0 0 .92.43q.5.17.92.27l2.2.5a6.34 6.34 0 0 1 1.4.38 4.54 4.54 0 0 1 1.23.72 3.54 3.54 0 0 1 .88 1.1 3.31 3.31 0 0 1 .34 1.55 3.39 3.39 0 0 1-.5 1.87 4.06 4.06 0 0 1-1.27 1.26 5.39 5.39 0 0 1-1.74.69 9 9 0 0 1-1.91.21 6.21 6.21 0 0 1-3.87-1.13 4.79 4.79 0 0 1-1.69-3.62h1.65a3.25 3.25 0 0 0 1.14 2.58 4.42 4.42 0 0 0 2.77.85 6.21 6.21 0 0 0 1.25-.13 4 4 0 0 0 1.19-.45 2.85 2.85 0 0 0 .9-.8 2 2 0 0 0 .35-1.19 1.9 1.9 0 0 0-.25-1 2.17 2.17 0 0 0-.67-.68 4.22 4.22 0 0 0-1-.46q-.54-.18-1.09-.31l-2.12-.47a12 12 0 0 1-1.49-.49 4.77 4.77 0 0 1-1.19-.68 2.86 2.86 0 0 1-.8-1 3.3 3.3 0 0 1-.29-1.45 3.24 3.24 0 0 1 .46-1.76 3.59 3.59 0 0 1 1.19-1.18 5.57 5.57 0 0 1 1.64-.66 8 8 0 0 1 1.8-.21 6.62 6.62 0 0 1 1.9.26 4.37 4.37 0 0 1 1.55.81 4 4 0 0 1 1.06 1.36 4.89 4.89 0 0 1 .45 1.91h-1.67a3.12 3.12 0 0 0-.27-1.27z"/><path class="cls-2" d="M65.01 19.49h-10.7V5h10.56v1.73h-8.6v4.44h7.93v1.74h-7.93v4.85h8.74zM46.58 11.74h6.36v7.75h-1.68l-.06-1.88a5.91 5.91 0 0 1-4.74 2.26 5.81 5.81 0 0 1-4.44-1.63 7.74 7.74 0 0 1-2.28-6.12c0-3.53 2.14-7.51 6.86-7.51 2.7 0 5.71 1.53 6.14 4.79h-1.9c-.62-2.52-2.75-3-4.34-3-2.6 0-4.74 2.08-4.74 5.87 0 2.95 1 6 4.82 6a4.61 4.61 0 0 0 3-.93 4.45 4.45 0 0 0 1.52-3.9h-4.52v-1.7zM36.91 15.27l1.43 4.22h2.12L35.24 5h-2.22l-5.45 14.49h2l1.51-4.22h5.83zm-5.21-1.73l2.32-6.38 2.14 6.38H31.7zM25.62 9.38c-.1-2.23-1.95-2.93-3.57-2.93-1.22 0-3.29.34-3.29 2.53 0 1.22.86 1.63 1.71 1.83l4.12.94c1.87.44 3.27 1.57 3.27 3.85 0 3.41-3.17 4.35-5.64 4.35-2.67 0-3.71-.8-4.36-1.38a4.44 4.44 0 0 1-1.46-3.65h1.83c0 2.61 2.13 3.37 4 3.37 1.4 0 3.77-.36 3.77-2.43 0-1.51-.7-2-3.07-2.55l-3-.68a3.47 3.47 0 0 1-3.07-3.39c0-2.25 1.46-4.46 5-4.46 5 0 5.54 3 5.62 4.6h-1.86zM7.95 3.44c-3.31 0-6 4-6 8.88s2.69 8.88 6 8.88 6-4 6-8.88-2.71-8.88-6-8.88m0-.53c4 0 7.43 4.25 7.43 9.44s-3.39 9.47-7.43 9.47S.46 17.58.46 12.36s3.3-9.44 7.43-9.44"/><path class="cls-2" d="M12.54 9.74c-.09-1.76-1.94-4.48-4.39-4.57v4.79h4.18a.2.2 0 0 0 .21-.21"/><path class="cls-2" d="M12.54 14.95a.36.36 0 0 0-.12-.26L7.64 9.9V5.16C5.18 5.26 3.35 8 3.25 9.75a.34.34 0 0 0 .11.28l4.78 4.82v4.73c2.48-.1 4.34-2.88 4.39-4.63"/><path class="cls-2" d="M3.26 15.02c.1 1.76 1.95 4.46 4.39 4.56v-4.79H3.46a.19.19 0 0 0-.2.23"/><path fill="#e13345" stroke="#000" stroke-width="0" d="M75.701.606h1.626V2.87h-1.626z"/></svg>