<svg xmlns="http://www.w3.org/2000/svg" width="129" height="480" viewBox="0 0 129 480"><defs><style>.a{fill:#bdc0c4;}.b{fill:#c82c0a;}.c{fill:#eff0f1;}.d{fill:#fff;}.e{fill:#07c;}.f{fill:#30a7fc;}.g{fill:#b9b8b9;}.h{fill:#fbad1c;}.i{fill:#e0e0e0;}.j{fill:#f8981d;}.k{fill:#f5891f;}.l{fill:#65bb5b;}.m{fill:#b6b6b7;}.n{fill:#4ca143;}.o{fill:#f27f20;}.p{fill:#cecece;}.q{fill:#c72c0b;}.r{fill:#0068b3;}.s{fill:#777;}.t{fill:#b7b7b7;}.u{fill:#bbb;}.v{fill:#848d95;}.w{fill:#0075cf;}.x{fill:#444;}.y{fill:#f90;}.z{fill:#2576bb;}.aa{fill:#9ca2a7;}.ab{fill:silver;}.ac{fill:#405a04;}.ad{fill:#e9e9e9;}.ae{fill:#9199a1;}.af{fill:#5a5a5a;}.ag{fill:#f27f1f;}.ah{fill:#6a737c;}</style></defs><title>doc-sprites</title><polygon class="a" points="108 421.28 106.72 420 103.5 423.22 100.28 420 99 421.28 102.22 424.5 99 427.72 100.28 429 103.5 425.78 106.72 429 108 427.72 104.78 424.5 108 421.28"/><polygon class="b" points="124 421.28 122.72 420 119.5 423.22 116.28 420 115 421.28 118.22 424.5 115 427.72 116.28 429 119.5 425.78 122.72 429 124 427.72 120.78 424.5 124 421.28"/><rect class="c" x="62" y="238" width="4" height="12"/><polygon class="d" points="20 72 15 67 2 67 2 89 20 89 20 72"/><polygon class="d" points="41 124 34 117 23 117 23 137 25 137 25 139 41 139 41 124"/><path class="e" d="M51,93H44v4.06a1.31,1.31,0,0,0-1,1.24v3.4a1.31,1.31,0,0,0,1,1.24V105H54V96Zm-5,5h1v1l-1,1,1,1v1H46l-2-2Zm7,6H45v-1h5.7a1.32,1.32,0,0,0,1.3-1.3V98.3A1.32,1.32,0,0,0,50.7,97H45V94h6v2h2Zm-5-5V98h1l2,2-2,2H48v-1l1-1Z"/><path class="f" d="M51,107H44v4.06a1.31,1.31,0,0,0-1,1.24v3.4a1.31,1.31,0,0,0,1,1.24V119H54v-9Zm-5,5h1v1l-1,1,1,1v1H46l-2-2Zm7,6H45v-1h5.7a1.32,1.32,0,0,0,1.3-1.3v-3.4a1.32,1.32,0,0,0-1.3-1.3H45v-3h6v2h2Zm-5-5v-1h1l2,2-2,2H48v-1l1-1Z"/><path class="g" d="M99,93H92v4.06a1.31,1.31,0,0,0-1,1.24v3.4a1.31,1.31,0,0,0,1,1.24V105h10V96Zm-5,5h1v1l-1,1,1,1v1H94l-2-2Zm7,6H93v-1h5.7a1.32,1.32,0,0,0,1.3-1.3V98.3A1.32,1.32,0,0,0,98.7,97H93V94h6v2h2Zm-5-5V98h1l2,2-2,2H96v-1l1-1Z"/><path class="e" d="M54,124l-3-3H44v12H54Zm-1,8H45V122h6v2h2Z"/><rect class="h" x="3" y="1" width="2" height="14"/><rect class="i" x="6" y="1" width="2" height="14"/><rect class="i" x="9" y="1" width="2" height="14"/><rect class="i" x="12" y="1" width="2" height="14"/><rect class="h" x="19" y="1" width="2" height="14"/><rect class="j" x="22" y="1" width="2" height="14"/><rect class="i" x="25" y="1" width="2" height="14"/><rect class="i" x="28" y="1" width="2" height="14"/><rect class="h" x="3" y="17" width="2" height="14"/><rect class="j" x="6" y="17" width="2" height="14"/><rect class="k" x="9" y="17" width="2" height="14"/><rect class="i" x="12" y="17" width="2" height="14"/><rect class="l" x="19" y="17" width="2" height="14"/><rect class="l" x="22" y="17" width="2" height="14"/><rect class="l" x="25" y="17" width="2" height="14"/><rect class="l" x="28" y="17" width="2" height="14"/><path class="m" d="M13.3,41.6c0-.2.1-.4.1-.6a1.27,1.27,0,0,0-.1-.6l1.3-1c.1-.1.1-.2.1-.4l-1.2-2.1c-.1-.1-.2-.1-.4-.1l-1.5.6c-.3-.2-.7-.4-1-.6l-.2-1.6c.1-.2-.1-.3-.2-.3H7.8c-.1,0-.3.1-.3.2l-.2,1.6a3.33,3.33,0,0,0-1,.6l-1.4-.6c-.2-.1-.3,0-.4.1L3.3,38.9c-.1.1,0,.2.1.4l1.3,1c0,.2-.1.4-.1.6a1.27,1.27,0,0,0,.1.6l-1.3,1c-.1.1-.1.2-.1.4L4.5,45c.1.1.2.1.4.1l1.5-.6c.3.2.7.4,1,.6l.2,1.6c0,.1.1.2.3.2h2.4c.1,0,.3-.1.3-.2l.2-1.6a8.79,8.79,0,0,0,1-.6l1.5.6c.1.1.3,0,.4-.1l1.2-2.1a.25.25,0,0,0,0-.35l-.08,0ZM8.9,43.1A2.1,2.1,0,1,1,11,41h0A2.1,2.1,0,0,1,8.9,43.1Z"/><path class="g" d="M41,72l-5-5H23V89H41ZM40,88H24V68H36v4h4Z"/><path class="n" d="M32,73a5,5,0,1,0,5,5A5,5,0,0,0,32,73Zm3,6H33v2H31V79H29V77h2V75h2v2h2Z"/><polygon class="o" points="11.5 101 7 101 7 109 8 109 8 105 10.8 105 11 106 15 106 15 102 11.7 102 11.5 101"/><path class="g" d="M20,98l-5-5H2v22H20Zm-1,16H3V94H15v4h4Z"/><polygon class="e" points="19.1 39.6 19.1 42.8 22.8 46 29 40.4 29 37 22.8 42.6 19.1 39.6"/><polygon class="n" points="51.1 39.6 51.1 42.8 54.8 46 61 40.4 61 37 54.8 42.6 51.1 39.6"/><polygon class="p" points="93.1 327.6 93.1 330.8 96.8 334 103 328.4 103 325 96.8 330.6 93.1 327.6"/><polygon class="n" points="28 103.98 28 107 30.95 109.09 36 104 36 101 31 106 28 103.98"/><polygon class="q" points="78 46 70 37 67 37 75 46 78 46"/><polygon class="q" points="70 46 78 37 75 37 67 46 70 46"/><polygon class="r" points="35.1 39.6 35.1 42.8 38.8 46 45 40.4 45 37 38.8 42.6 35.1 39.6"/><path class="g" d="M41,98l-5-5H23v22H41Zm-1,16H24V94H36v4h4ZM72,77H65V89H75V80Zm2,11H66V78h6v2h2Z"/><path class="e" d="M3,59.3V61H4.7l4.9-4.9L7.9,54.4Zm7.9-4.5a.37.37,0,0,0,.08-.52l-.08-.08-1-1a.37.37,0,0,0-.52-.08l-.08.08-.8.8,1.7,1.7ZM7.2,60l-1,1H12V60Z"/><path class="s" d="M1,188v3H4l8.6-8.6-3-3Zm13.5-7.9a.57.57,0,0,0,0-1l-1.8-1.8a.67.67,0,0,0-.95-.05l-.05.05-1.4,1.4,3,3ZM8.3,189l-1.8,2H15v-2Z"/><path class="r" d="M19,59.3V61h1.7l4.9-4.9-1.7-1.7Zm7.9-4.5a.37.37,0,0,0,.08-.52l-.08-.08-1-1a.37.37,0,0,0-.52-.08l-.08.08-.8.8,1.7,1.7ZM23.2,60l-1,1H28V60Z"/><polygon class="g" points="20 122 15 117 15 117 15 117 14 117 14 118 14.6 118 15 118 15 122 19 122 19 123 20 123 20 122"/><rect class="g" x="2" y="125" width="1" height="2"/><rect class="g" x="2" y="129" width="1" height="2"/><rect class="g" x="2" y="133" width="1" height="2"/><rect class="g" x="10" y="117" width="2" height="1"/><polygon class="g" points="3 137 2 137 2 139 4 139 4 138 3 138 3 137"/><rect class="g" x="6" y="117" width="2" height="1"/><polygon class="g" points="2 119 3 119 3 118 4 118 4 117 2 117 2 119"/><rect class="g" x="2" y="121" width="1" height="2"/><rect class="g" x="19" y="133" width="1" height="2"/><rect class="g" x="19" y="129" width="1" height="2"/><rect class="g" x="19" y="125" width="1" height="2"/><rect class="g" x="14" y="138" width="2" height="1"/><polygon class="g" points="19 138 18 138 18 139 20 139 20 137 19 137 19 138"/><rect class="g" x="10" y="138" width="2" height="1"/><rect class="g" x="6" y="138" width="2" height="1"/><polygon class="g" points="15 129 15 127 12 127 12 124 10 124 10 127 7 127 7 129 10 129 10 132 12 132 12 129 15 129"/><polygon class="d" points="41 148 39 148 39 149 41 149 41 152 44 152 44 153 45 153 45 152 41 148"/><rect class="d" x="33" y="154" width="1" height="2"/><polygon class="d" points="34 160 33 160 33 161 33 162 34 162 35 162 35 161 34 161 34 160"/><rect class="d" x="36" y="161" width="2" height="1"/><rect class="d" x="39" y="161" width="2" height="1"/><polygon class="d" points="33 150 34 150 34 149 35 149 35 148 33 148 33 150"/><rect class="d" x="33" y="151" width="1" height="2"/><rect class="d" x="44" y="154" width="1" height="2"/><rect class="d" x="33" y="157" width="1" height="2"/><rect class="d" x="44" y="157" width="1" height="2"/><polygon class="d" points="44 161 42 161 42 162 44 162 45 162 45 160 44 160 44 161"/><rect class="d" x="36" y="148" width="2" height="1"/><polygon class="d" points="40 158 40 156 42 156 42 154 40 154 40 152 38 152 38 154 36 154 36 156 38 156 38 158 40 158"/><path class="g" d="M41,124l-7-7H23v20h2v2H41ZM24,136V118H34v4h4v14Zm16,2H26v-1H39V124h1ZM23,161a15.61,15.61,0,0,0-3-6.7h0a11.87,11.87,0,0,0-8-4.3v-3l-6,6,6,6v-3.1a14.8,14.8,0,0,1,7,1.5h0c.3.2.7.4,1,.6h0A14.21,14.21,0,0,1,23,161Z"/><path class="g" d="M19,163H3V143H15v4h4v4.9c.3.3.7.6,1,.9V147h0l-5-5H2v22H20v-4.7a6.07,6.07,0,0,0-1-.7Z"/><polygon class="g" points="75 93 75 93 75 93 74 93 74 94 74.9 94 75 94 75 96 77 96 78 96 75 93"/><rect class="g" x="68" y="97" width="1" height="1"/><rect class="g" x="68" y="99" width="1" height="1"/><rect class="g" x="68" y="101" width="1" height="1"/><rect class="g" x="72" y="93" width="1" height="1"/><polygon class="g" points="69 103 68 103 68 105 70 105 70 104 69 104 69 103"/><rect class="g" x="70" y="93" width="1" height="1"/><polygon class="g" points="68 94 69 94 69 94 69 94 69 93 68 93 68 94"/><rect class="g" x="68" y="95" width="1" height="1"/><rect class="g" x="77" y="102" width="1" height="1"/><rect class="g" x="77" y="100" width="1" height="1"/><rect class="g" x="77" y="98" width="1" height="1"/><rect class="g" x="77" y="96" width="1" height="1"/><rect class="g" x="75" y="104" width="1" height="1"/><polygon class="g" points="77 104.5 77 104.5 77 105 78 105 78 104 77 104 77 104.5"/><rect class="g" x="73" y="104" width="1" height="1"/><rect class="g" x="71" y="104" width="1" height="1"/><polygon class="g" points="76 100 76 98 74 98 74 96 72 96 72 98 70 98 70 100 72 100 72 102 74 102 74 100 76 100"/><polygon class="f" points="75 107 75 107 75 107 74 107 74 108 74.9 108 75 108 75 110 77 110 78 110 75 107"/><rect class="f" x="68" y="111" width="1" height="1"/><rect class="f" x="68" y="113" width="1" height="1"/><rect class="f" x="68" y="115" width="1" height="1"/><rect class="f" x="72" y="107" width="1" height="1"/><polygon class="f" points="69 117 68 117 68 119 70 119 70 118 69 118 69 117"/><rect class="f" x="70" y="107" width="1" height="1"/><polygon class="f" points="68 108 69 108 69 108 69 108 69 107 68 107 68 108"/><rect class="f" x="68" y="109" width="1" height="1"/><rect class="f" x="77" y="116" width="1" height="1"/><rect class="f" x="77" y="114" width="1" height="1"/><rect class="f" x="77" y="112" width="1" height="1"/><rect class="f" x="77" y="110" width="1" height="1"/><rect class="f" x="75" y="118" width="1" height="1"/><polygon class="f" points="77 118.5 77 118.5 77 119 78 119 78 118 77 118 77 118.5"/><rect class="f" x="73" y="118" width="1" height="1"/><rect class="f" x="71" y="118" width="1" height="1"/><polygon class="f" points="76 114 76 112 74 112 74 110 72 110 72 112 70 112 70 114 72 114 72 116 74 116 74 114 76 114"/><polygon class="s" points="40 177 33 177 33 191 35 191 35 184 40 184 42 186 47 186 47 179 42 179 40 177"/><polygon class="s" points="26 177 26 179 27.6 179 21 185.6 22.4 187 29 180.4 29 182 31 182 31 177 26 177"/><path class="s" d="M29,189H19V179h5v-2H18.6a1.58,1.58,0,0,0-1.6,1.56s0,0,0,0v10.8a1.58,1.58,0,0,0,1.56,1.6H29.4a1.58,1.58,0,0,0,1.6-1.56s0,0,0,0V184H29Zm32-10a7,7,0,1,0,0,9.9,7,7,0,0,0,0-9.9Zm-1,7.6L58.6,188,56,185.4,53.4,188,52,186.6l2.6-2.6L52,181.4l1.4-1.4,2.6,2.6,2.6-2.6,1.4,1.4L57.4,184Z"/><path class="e" d="M1,204v3H4l8.6-8.6-3-3Zm13.5-7.9a.57.57,0,0,0,0-1l-1.8-1.8a.67.67,0,0,0-.95-.05l-.05.05-1.4,1.4,3,3ZM8.3,205l-1.8,2H15v-2Z"/><polygon class="o" points="40 193 33 193 33 207 35 207 35 200 40 200 42 202 47 202 47 195 42 195 40 193"/><polygon class="e" points="26 193 26 195 27.6 195 21 201.6 22.4 203 29 196.4 29 198 31 198 31 193 26 193"/><path class="e" d="M29,205H19V195h5v-2H18.6a1.58,1.58,0,0,0-1.6,1.56s0,0,0,0v10.8a1.58,1.58,0,0,0,1.56,1.6H29.4a1.58,1.58,0,0,0,1.6-1.56s0,0,0,0V200H29Z"/><polygon class="f" points="106 193 106 195 107.6 195 101 201.6 102.4 203 109 196.4 109 198 111 198 111 193 106 193"/><path class="f" d="M109,205H99V195h5v-2H98.6a1.58,1.58,0,0,0-1.6,1.56s0,0,0,0v10.8a1.58,1.58,0,0,0,1.56,1.6H109.4a1.58,1.58,0,0,0,1.6-1.56s0,0,0,0V200h-2Z"/><path class="b" d="M61,195a7,7,0,1,0,0,9.9,7,7,0,0,0,0-9.9Zm-1,7.6L58.6,204,56,201.4,53.4,204,52,202.6l2.6-2.6L52,197.4l1.4-1.4,2.6,2.6,2.6-2.6,1.4,1.4L57.4,200Z"/><polygon class="d" points="60 202.6 58.6 204 56 201.4 53.4 204 52 202.6 54.6 200 52 197.4 53.4 196 56 198.6 58.6 196 60 197.4 57.4 200 60 202.6"/><polyline class="s" points="84 4 82 4 79 7 76 4 74 4 78 8 74 12 76 12 79 9 82 12 84 12 80 8"/><polygon class="g" points="71 81 71 82 72 83 71 84 71 85 73 83 71 81"/><polygon class="g" points="69 81 69 82 68 83 69 84 69 85 67 83 69 81"/><polygon class="t" points="89 223 91 225 93 223 89 223"/><path class="t" d="M87.8,223.9a4.9,4.9,0,1,0-4.9,4.9h0a4.43,4.43,0,0,0,3-1.1l3.2,3.1.6-.6-3.2-3.1a4.82,4.82,0,0,0,1.3-3.2Zm-8.8,0a3.9,3.9,0,1,1,3.9,3.9h0A3.84,3.84,0,0,1,79,224S79,223.94,79,223.9Z"/><polygon class="q" points="56 337 48 351 64 351 56 337"/><path class="d" d="M57.9,344.3c.2-.2.2-.3,0-.5l-.8-.8c-.2-.2-.3-.2-.5,0l-.6.7,1.3,1.3Z"/><polygon class="d" points="55.6 344 52 347.7 52 349 53.3 349 57 345.4 55.6 344"/><polygon class="d" points="54.5 349 59 349 59 348 55.3 348 54.5 349"/><path class="g" d="M62,72l-5-5H44V89H62ZM61,88H45V68H57v4h4Z"/><path class="q" d="M53,73a5,5,0,1,0,5,5A5,5,0,0,0,53,73Zm3,6H50V77h6Z"/><path class="g" d="M36,210H23v22H41V215Zm3,19a.94.94,0,0,1-.88,1H26a.94.94,0,0,1-1-1v-8a.94.94,0,0,1,.88-1H38a.94.94,0,0,1,1,1Zm-3-14v-3.6l3.6,3.6Z"/><path class="n" d="M22,214a5,5,0,1,0,5-5,4.88,4.88,0,0,0-5,4.76Q22,213.88,22,214Z"/><polygon class="d" points="30 213 30 215 28 215 28 217 26 217 26 215 24 215 24 213 26 213 26 211 28 211 28 213 30 213"/><path class="e" d="M31,124a5,5,0,1,0,5,5A5,5,0,0,0,31,124Z"/><path class="d" d="M33.9,127.3c.2-.2.2-.3,0-.5l-.8-.8c-.2-.2-.3-.2-.5,0l-.6.6,1.3,1.3Z"/><polygon class="d" points="31.6 127.1 28 130.7 28 132.1 29.3 132.1 33 128.4 31.6 127.1"/><polygon class="d" points="30.5 132.1 34 132.1 34 131.1 31.3 131.1 30.5 132.1"/><path class="e" d="M63,121H56v12H66v-9Zm-.4,3.4v-2.9l2.9,2.9Z"/><path class="d" d="M63.7,126H58.3a1.32,1.32,0,0,0-1.3,1.3v3.4a1.32,1.32,0,0,0,1.3,1.3h5.4a1.32,1.32,0,0,0,1.3-1.3v-3.4A1.32,1.32,0,0,0,63.7,126Z"/><polygon class="e" points="58 129 58.5 129.5 60.3 131.3 60.3 130.2 59 129 60.3 127.8 60.3 126.7 58.5 128.5 58 129"/><polygon class="e" points="63.5 128.5 61.7 126.7 61.7 127.8 63 129 61.7 130.2 61.7 131.3 63.5 129.5 64 129 63.5 128.5"/><path class="n" d="M43,123.5a3.5,3.5,0,1,0,3.5-3.5,3.42,3.42,0,0,0-3.5,3.34Q43,123.42,43,123.5Zm5-.5v1H47v1H46v-1H45v-1h1v-1h1v1Z"/><polygon class="d" points="48 123 48 124 47 124 47 125 46 125 46 124 45 124 45 123 46 123 46 122 47 122 47 123 48 123"/><path class="n" d="M55,123.5a3.5,3.5,0,1,0,3.5-3.5,3.42,3.42,0,0,0-3.5,3.34Q55,123.42,55,123.5Zm5-.5v1H59v1H58v-1H57v-1h1v-1h1v1Z"/><polygon class="d" points="60 123 60 124 59 124 59 125 58 125 58 124 57 124 57 123 58 123 58 122 59 122 59 123 60 123"/><circle class="u" cx="9.5" cy="170.5" r="1.5"/><path class="u" d="M9.5,166c-4.4,0-7.5,4.5-7.5,4.5S5.1,175,9.5,175s7.5-4.5,7.5-4.5S13.9,166,9.5,166Zm0,8a3.5,3.5,0,1,1,3.5-3.5A3.54,3.54,0,0,1,9.5,174Z"/><path class="e" d="M101.5,339c-4.4,0-7.5,4.5-7.5,4.5s3.1,4.5,7.5,4.5,7.5-4.5,7.5-4.5S105.9,339,101.5,339Zm0,6a1.5,1.5,0,1,0-1.5-1.5A1.5,1.5,0,0,0,101.5,345Zm0,2a3.5,3.5,0,1,1,3.5-3.5A3.54,3.54,0,0,1,101.5,347Z"/><circle class="s" cx="69" cy="184" r="1"/><path class="s" d="M69,181c-2.9,0-5,3-5,3s2.1,3,5,3,5-3,5-3S71.9,181,69,181Zm0,5a2,2,0,1,1,2-2A2,2,0,0,1,69,186Z"/><polygon class="e" points="75 121 75 121 75 121 74 121 74 122 74.9 122 75 122 75 124 77 124 78 124 75 121"/><rect class="e" x="68" y="125" width="1" height="1"/><rect class="e" x="68" y="127" width="1" height="1"/><rect class="e" x="68" y="129" width="1" height="1"/><rect class="e" x="72" y="121" width="1" height="1"/><polygon class="e" points="69 131 68 131 68 133 70 133 70 132 69 132 69 131"/><rect class="e" x="70" y="121" width="1" height="1"/><polygon class="e" points="68 122 69 122 69 122 69 122 69 121 68 121 68 122"/><rect class="e" x="68" y="123" width="1" height="1"/><rect class="e" x="77" y="130" width="1" height="1"/><rect class="e" x="77" y="128" width="1" height="1"/><rect class="e" x="77" y="126" width="1" height="1"/><rect class="e" x="77" y="124" width="1" height="1"/><rect class="e" x="75" y="132" width="1" height="1"/><polygon class="e" points="77 132.5 77 132.5 77 133 78 133 78 132 77 132 77 132.5"/><rect class="e" x="73" y="132" width="1" height="1"/><rect class="e" x="71" y="132" width="1" height="1"/><polygon class="e" points="76 128 76 126 74 126 74 124 72 124 72 126 70 126 70 128 72 128 72 130 74 130 74 128 76 128"/><polygon class="e" points="39 51 34 56 35 56 35 61 38 61 38 57 40 57 40 61 43 61 43 56 44 56 39 51"/><polygon class="f" points="55 51 50 56 51 56 51 61 54 61 54 57 56 57 56 61 59 61 59 56 60 56 55 51"/><polygon class="v" points="70 51 65 56 66 56 66 61 69 61 69 57 71 57 71 61 74 61 74 56 75 56 70 51"/><polygon class="s" points="74 177 67 177 67 180 69 180 69 179 73 179 73 182 76 182 76 189 69 189 69 188 67 188 67 191 78 191 78 181 74 177"/><circle class="e" cx="69" cy="200" r="1"/><path class="e" d="M69,197c-2.9,0-5,3-5,3s2.1,3,5,3,5-3,5-3S71.9,197,69,197Zm0,5a2,2,0,1,1,2-2A2,2,0,0,1,69,202Z"/><polygon class="e" points="74 193 67 193 67 196 69 196 69 195 73 195 73 198 76 198 76 205 69 205 69 204 67 204 67 207 78 207 78 197 74 193"/><polygon class="w" points="89 200 86 197 86 199 83 199 83 201 86 201 86 203 89 200"/><polygon class="w" points="90 193 83 193 83 195 85 197 85 195 89 195 89 198 92 198 92 205 85 205 85 203 83 205 83 207 94 207 94 197 90 193"/><polygon class="s" points="85 184 82 181 82 183 80 183 80 185 82 185 82 187 85 184"/><polygon class="s" points="90 177 83 177 83 180 85 182 85 179 89 179 89 182 92 182 92 189 85 189 85 186 83 188 83 191 94 191 94 181 90 177"/><polygon class="w" points="85 199 83 197 81 197.83 83.59 200.41 85 199"/><polygon class="w" points="83.59 199.59 81 202.17 83 203 85 201 83.59 199.59"/><rect class="w" x="80" y="197" width="3" height="2"/><rect class="w" x="80" y="201" width="3" height="2"/><rect class="i" x="83" y="27" width="2" height="51"/><rect class="i" x="83" y="76" width="15" height="2"/><path class="x" d="M19,257v12H4V257Zm1-1H3v14H20Z"/><rect class="x" x="4" y="257" width="15" height="4"/><rect class="x" x="4" y="263" width="15" height="1"/><rect class="x" x="4" y="266" width="15" height="1"/><rect class="x" x="11" y="260" width="1" height="10"/><path class="p" d="M19,277v12H4V277Zm1-1H3v14H20Z"/><rect class="p" x="4" y="277" width="15" height="4"/><rect class="p" x="4" y="283" width="15" height="1"/><rect class="p" x="4" y="286" width="15" height="1"/><rect class="p" x="11" y="280" width="1" height="10"/><path class="y" d="M19,297v12H4V297Zm1-1H3v14H20Z"/><rect class="y" x="4" y="297" width="15" height="4"/><rect class="y" x="4" y="303" width="15" height="1"/><rect class="y" x="4" y="306" width="15" height="1"/><rect class="y" x="11" y="300" width="1" height="10"/><polygon class="g" points="31 221 31 222 28 225 31 228 31 229 30 229 26 225 30 221 31 221"/><polygon class="g" points="33 221 33 222 36 225 33 228 33 229 34 229 38 225 34 221 33 221"/><path class="g" d="M15,210H2v22H20V215Zm3,19a.94.94,0,0,1-.88,1H5a.94.94,0,0,1-1-1v-8a.94.94,0,0,1,.88-1H17a.94.94,0,0,1,1,1Zm-3-14v-3.6l3.6,3.6Z"/><polygon class="g" points="10 221 10 222 7 225 10 228 10 229 9 229 5 225 9 221 10 221"/><polygon class="g" points="12 221 12 222 15 225 12 228 12 229 13 229 17 225 13 221 12 221"/><path class="g" d="M57,210H44v22H62V215Zm3,19a.94.94,0,0,1-.88,1H47a.94.94,0,0,1-1-1v-8a.94.94,0,0,1,.88-1H59a.94.94,0,0,1,1,1Zm-3-14v-3.6l3.6,3.6Z"/><polygon class="g" points="52 221 52 222 49 225 52 228 52 229 51 229 47 225 51 221 52 221"/><polygon class="g" points="54 221 54 222 57 225 54 228 54 229 55 229 59 225 55 221 54 221"/><path class="q" d="M48,209a5,5,0,1,0,5,5A5,5,0,0,0,48,209Zm3,6H45v-2h6Z"/><polygon class="d" points="51 215 45 215 45 213 51 213 51 215"/><path class="e" d="M6,209a5,5,0,1,0,5,5A5,5,0,0,0,6,209Z"/><path class="d" d="M8.9,212.3c.2-.2.2-.3,0-.5l-.8-.8c-.2-.2-.3-.2-.5,0l-.6.7L8.3,213Z"/><polygon class="d" points="6.6 212.1 3 215.7 3 217 4.3 217 8 213.4 6.6 212.1"/><polygon class="d" points="5.5 217 9 217 9 216 6.3 216 5.5 217"/><path class="o" d="M44,258H35a2,2,0,0,0-2,2v8a2,2,0,0,0,2,2h9a2,2,0,0,0,2-2v-8A2,2,0,0,0,44,258Zm-5,4-2,2,2,2v2H38l-4-4,4-4h1Zm2,6H40v-2l2-2-2-2v-2h1l4,4Z"/><path class="z" d="M61,261l-3-3H51v12H61Zm-1,8H52V259h6v2h2Z"/><path class="o" d="M57.7,262H51.3a1.32,1.32,0,0,0-1.3,1.3v3.4a1.32,1.32,0,0,0,1.3,1.3h6.4a1.32,1.32,0,0,0,1.3-1.3v-3.4A1.32,1.32,0,0,0,57.7,262Z"/><polygon class="d" points="51 265 53 267 54 267 54 266 53 265 54 264 54 263 53 263 51 265"/><polygon class="d" points="56 263 55 263 55 264 56 265 55 266 55 267 56 267 58 265 56 263"/><polygon class="aa" points="58 258 51 258 51 262 52 262 52 259 57.9 259 58 259 58 261 60 261 60 269 52 269 52 268 51 268 51 270 61 270 61 261 58 258"/><path class="s" d="M35,286a1,1,0,0,0,1,1h8a1,1,0,0,0,1-1v-9H35Zm11-12H44l-1-1H37l-1,1H34v2H46Z"/><path class="b" d="M35,302a1,1,0,0,0,1,1h8a1,1,0,0,0,1-1v-9H35Zm11-12H44l-1-1H37l-1,1H34v2H46Z"/><path class="n" d="M31,327.48,24.52,321a2.41,2.41,0,0,0-.14,2.61l-2.68,2.68c-1.21-.61-2.51-.9-3.2-.2l-.46.46,2.7,2.7L17,333v2h2l3.75-3.74,2.7,2.7.46-.46c.7-.7.41-2-.2-3.2l2.68-2.68A2.41,2.41,0,0,0,31,327.48Z"/><path class="ab" d="M15,327.48,8.52,321a2.41,2.41,0,0,0-.14,2.61L5.7,326.29c-1.21-.61-2.51-.9-3.2-.2l-.46.46,2.7,2.7L1,333v2H3l3.75-3.74,2.7,2.7.46-.46c.7-.7.41-2-.2-3.2l2.68-2.68A2.41,2.41,0,0,0,15,327.48Z"/><path class="q" d="M63,327.48,56.52,321a2.41,2.41,0,0,0-.14,2.61l-2.68,2.68c-1.21-.61-2.51-.9-3.2-.2l-.46.46,2.7,2.7L49,333v2h2l3.75-3.74,2.7,2.7.46-.46c.7-.7.41-2-.2-3.2l2.68-2.68A2.41,2.41,0,0,0,63,327.48Z"/><path class="ac" d="M47,327.48,40.52,321a2.41,2.41,0,0,0-.14,2.61l-2.68,2.68c-1.21-.61-2.51-.9-3.2-.2l-.46.46,2.7,2.7L33,333v2h2l3.75-3.74,2.7,2.7.46-.46c.7-.7.41-2-.2-3.2l2.68-2.68A2.41,2.41,0,0,0,47,327.48Z"/><polygon class="d" points="43 327 43 328 41 328 41 330 40 330 40 328 38 328 38 327 40 327 40 325 41 325 41 327 43 327"/><polygon class="d" points="59 327 59 328 54 328 54 327 59 327"/><polygon class="aa" points="82 303 67 303 67 312 69 312 69 305 82 305 82 311 88 311 88 332 69 332 69 330 67 330 67 334 90 334 90 311 82 303"/><path class="o" d="M81,314H67a2,2,0,0,0-2,2v10a2,2,0,0,0,2,2H81a2,2,0,0,0,2-2V316A2,2,0,0,0,81,314Zm-8,3.25L69.38,321,73,324.75V326H71.77L67,321l4.77-5H73ZM76.19,326H75v-1.25L78.57,321,75,317.25V316h1.19L81,321Z"/><path class="s" d="M98,189.25v1.7h1.7l4.9-4.9-1.7-1.7Zm7.9-4.5a.37.37,0,0,0,.08-.52l-.08-.08-1-1a.37.37,0,0,0-.52-.08l-.08.08-.8.8,1.7,1.7Zm-3.7,5.2-1,1H107v-1ZM55.5,277v3a.5.5,0,0,0,.14.34h0l2.49,2.49.71-.71-2.33-2.33V277Z"/><path class="s" d="M56,273a7,7,0,0,0-7,7H48l2,2,2-2H51a5,5,0,1,1,1,3l-1.44,1.44A7,7,0,1,0,56,273Z"/><path class="e" d="M11,73a5,5,0,1,0,5,5A5,5,0,0,0,11,73Z"/><path class="d" d="M13.9,76.3c.2-.2.2-.3,0-.5l-.8-.8c-.2-.2-.3-.2-.5,0l-.6.7L13.3,77Z"/><polygon class="d" points="11.6 76.1 8 79.7 8 81 9.3 81 13 77.4 11.6 76.1"/><polygon class="d" points="10.5 81 14 81 14 80 11.3 80 10.5 81"/><path class="g" d="M20,72l-5-5H2V89H20ZM19,88H3V68H15v4h4Z"/><rect class="d" x="87.29" y="347.75" width="1.43" height="1.25"/><path class="d" d="M88,339a2.86,2.86,0,0,0-2.86,2.86h1.43a1.43,1.43,0,0,1,2.86,0,1.4,1.4,0,0,1-.42,1l-.89.9a2.88,2.88,0,0,0-.84,2v.71h1.43v-.36a2.43,2.43,0,0,1,.84-2l.64-.66a2.27,2.27,0,0,0,.66-1.61A2.86,2.86,0,0,0,88,339Z"/><path class="p" d="M72,337a7,7,0,1,1-7,7h0A7,7,0,0,1,72,337Zm0-1a8,8,0,1,0,8,8A8,8,0,0,0,72,336Z"/><path class="f" d="M24,337a7,7,0,1,1-7,7h0A7,7,0,0,1,24,337Zm0-1a8,8,0,1,0,8,8A8,8,0,0,0,24,336Z"/><rect class="f" x="23.29" y="347.75" width="1.43" height="1.25"/><path class="f" d="M24,339a2.86,2.86,0,0,0-2.86,2.86h1.43a1.43,1.43,0,0,1,2.86,0,1.4,1.4,0,0,1-.42,1l-.89.9a2.88,2.88,0,0,0-.84,2v.71h1.43v-.36a2.43,2.43,0,0,1,.84-2l.64-.66a2.27,2.27,0,0,0,.66-1.61A2.86,2.86,0,0,0,24,339Z"/><path class="c" d="M8,337a7,7,0,1,1-7,7H1A7,7,0,0,1,8,337Zm0-1a8,8,0,1,0,8,8A8,8,0,0,0,8,336Z"/><rect class="s" x="7.29" y="347.75" width="1.43" height="1.25"/><path class="s" d="M8,339a2.86,2.86,0,0,0-2.86,2.86H6.57a1.43,1.43,0,0,1,2.86,0,1.4,1.4,0,0,1-.42,1l-.89.9a2.88,2.88,0,0,0-.84,2v.71H8.71v-.36a2.43,2.43,0,0,1,.84-2l.64-.66a2.27,2.27,0,0,0,.66-1.61A2.86,2.86,0,0,0,8,339Z"/><circle class="e" cx="7.5" cy="386.5" r="7.5"/><path class="d" d="M3,388.3V390H4.7l4.9-4.9-1.7-1.7Zm7.9-4.5a.37.37,0,0,0,.08-.52l-.08-.08-1-1a.37.37,0,0,0-.52-.08l-.08.08-.8.8,1.7,1.7ZM7.2,389l-1,1H12v-1Z"/><polygon class="d" points="79 265 65 265 72 257 79 265"/><polygon class="ad" points="72 256 64 265 65 265 72 257 79 265 80 265 72 256"/><polygon class="g" points="61 94 56 94 56 105 58 105 58 100 61 100 62 102 66 102 66 96 62 96 61 94"/><polygon class="o" points="97 122 92 122 92 133 94 133 94 128 97 128 98 130 102 130 102 124 98 124 97 122"/><polygon class="o" points="72 402 66 402 66 414 68 414 68 408 72 408 73 410 78 410 78 404 73 404 72 402"/><polygon class="f" points="61 108 56 108 56 119 58 119 58 114 61 114 62 116 66 116 66 110 62 110 61 108"/><path class="g" d="M89.74,97.24a.56.56,0,0,0,.11-.78l-.11-.11-1.07-1.13a.56.56,0,0,0-.78-.11l-.11.11-1.19,1.19,2,2ZM85,104l-1,1h6v-1Z"/><polygon class="g" points="82 105 88.26 98.74 86.26 96.74 80 103 80 105 82 105"/><path class="f" d="M89.74,111.24a.56.56,0,0,0,.11-.78l-.11-.11-1.07-1.13a.56.56,0,0,0-.78-.11l-.11.11-1.19,1.19,2,2ZM85,118l-1,1h6v-1Z"/><polygon class="f" points="82 119 88.26 112.74 86.26 110.74 80 117 80 119 82 119"/><path class="e" d="M89.74,125.24a.56.56,0,0,0,.11-.78l-.11-.11-1.07-1.13a.56.56,0,0,0-.78-.11l-.11.11-1.19,1.19,2,2ZM85,132l-1,1h6v-1Z"/><polygon class="e" points="82 133 88.26 126.74 86.26 124.74 80 131 80 133 82 133"/><polygon class="c" points="121 122 116 122 116 133 118 133 118 128 121 128 122 130 126 130 126 124 122 124 121 122"/><path class="c" d="M113.74,125.24a.56.56,0,0,0,.11-.78l-.11-.11-1.07-1.13a.56.56,0,0,0-.78-.11l-.11.11-1.19,1.19,2,2ZM109,132l-1,1h6v-1Z"/><polygon class="c" points="106 133 112.26 126.74 110.26 124.74 104 131 104 133 106 133"/><polygon class="ae" points="20 404 24 400 16 400 20 404"/><polygon class="af" points="36 404 40 400 32 400 36 404"/><polygon class="s" points="19.6 362 17.4 362 12 368 6.4 362 4.4 362 12 370 19.6 362"/><polygon class="s" points="28.4 370 30.6 370 36 364 41.6 370 43.6 370 36 362 28.4 370"/><polygon class="s" points="56 358.4 56 360.6 62 366 56 371.6 56 373.6 64 366 56 358.4"/><polygon class="c" points="80 358.4 80 373.6 72 366 80 358.4"/><polygon class="s" points="121 180 119 180 119 183 116 183 116 185 119 185 119 188 121 188 121 185 124 185 124 183 121 183 121 180"/><path class="s" d="M126,176H114a2,2,0,0,0-2,2v12a2,2,0,0,0,2,2h12a2,2,0,0,0,2-2V178A2,2,0,0,0,126,176Zm1,14a1,1,0,0,1-1,1H114a1,1,0,0,1-1-1V178a1,1,0,0,1,1-1h12a1,1,0,0,1,1,1Z"/><polygon class="o" points="121 196 119 196 119 199 116 199 116 201 119 201 119 204 121 204 121 201 124 201 124 199 121 199 121 196"/><path class="o" d="M126,192H114a2,2,0,0,0-2,2v12a2,2,0,0,0,2,2h12a2,2,0,0,0,2-2V194A2,2,0,0,0,126,192Zm1,14a1,1,0,0,1-1,1H114a1,1,0,0,1-1-1V194a1,1,0,0,1,1-1h12a1,1,0,0,1,1,1Z"/><rect class="d" x="54.3" y="409.88" width="1.39" height="1.25"/><path class="d" d="M55,402.88a2.41,2.41,0,0,0-2.41,2.41h0v.13H54v-.12a1,1,0,1,1,1.7.72l-.71.72a2.42,2.42,0,0,0-.7,1.71v.7H55.7v-.41a1.83,1.83,0,0,1,.63-1.53l.51-.52a2,2,0,0,0,.57-1.37A2.41,2.41,0,0,0,55,402.88Z"/><polygon class="s" points="19.5 242 18.14 242 12 248.55 5.86 242 4.5 242 12 250 19.5 242"/><polygon class="s" points="19.5 238 18.14 238 12 244.55 5.86 238 4.5 238 12 246 19.5 238"/><polygon class="s" points="28.5 246 29.86 246 36 239.45 42.14 246 43.5 246 36 238 28.5 246"/><polygon class="s" points="28.5 250 29.86 250 36 243.45 42.14 250 43.5 250 36 242 28.5 250"/><path class="s" d="M53,237v14H67V237Zm8,13H54V238h7Zm5,0H62v-3h4Zm0-4H62v-4h4Zm0-5H62v-3h4Z"/><rect class="s" x="67" y="343" width="10" height="2"/><path class="a" d="M106.69,404.31a4.52,4.52,0,1,0,0,6.39h0A4.52,4.52,0,0,0,106.69,404.31Zm-.65,4.9-.9.9-1.68-1.68-1.68,1.68-.9-.9,1.68-1.68-1.68-1.68.9-.9,1.68,1.68,1.68-1.68.9.9-1.68,1.68Z"/><path class="b" d="M122.69,404.31a4.52,4.52,0,1,0,0,6.39h0A4.52,4.52,0,0,0,122.69,404.31Zm-.65,4.9-.9.9-1.68-1.68-1.68,1.68-.9-.9,1.68-1.68-1.68-1.68.9-.9,1.68,1.68,1.68-1.68.9.9-1.68,1.68Z"/><path class="e" d="M13.9,427.3c.2-.2.2-.3,0-.5l-.8-.8c-.2-.2-.3-.2-.5,0l-.6.7,1.3,1.3Z"/><polygon class="e" points="11.6 427.1 8 430.7 8 432 9.3 432 13 428.4 11.6 427.1"/><polygon class="e" points="10.5 432 14 432 14 431 11.3 431 10.5 432"/><path class="g" d="M20,423l-5-5H2v22H20Zm-1,16H3V419H15v4h4Zm43-16-5-5H44v22H62Zm-1,16H45V419H57v4h4Z"/><polygon class="q" points="57 433 51 425 49 425 55 433 57 433"/><polygon class="q" points="51 433 57 425 55 425 49 433 51 433"/><path class="g" d="M20,457l-5-5H2v22H20Zm-1,16H3V453H15v4h4Z"/><polygon class="n" points="28 428.98 28 432 30.95 434.09 36 429 36 426 31 431 28 428.98"/><path class="g" d="M41,423l-5-5H23v22H41Zm-1,16H24V419H36v4h4Z"/><path class="s" d="M3,449H8a2,2,0,0,0,2-2v-5a2,2,0,0,0-2-2H2a2,2,0,0,0-2,2v9Z"/><path class="e" d="M15,449l-1,1h6v-1Zm4.74-6.76a.56.56,0,0,0,.11-.78l-.11-.11-1.07-1.12a.56.56,0,0,0-.78-.11l-.11.11-1.19,1.19,2,2ZM12,450l6.26-6.26-2-2L10,448v2Z"/><polygon class="ag" points="20 440 20 451 22 451 22 446 25 446 26 448 30 448 30 442 26 442 25 440 20 440"/><polygon class="n" points="39.9 440 33.7 445.6 30 442.6 30 445.8 33.7 449 39.9 443.4 39.9 440"/><path class="ah" d="M40,440v12H50v-9l-3-3Zm6.6.5,2.9,2.9H46.6Zm1.1,4.5H42.3a1.32,1.32,0,0,0-1.3,1.3v3.4a1.32,1.32,0,0,0,1.3,1.3h5.4a1.32,1.32,0,0,0,1.3-1.3v-3.4A1.32,1.32,0,0,0,47.7,445ZM42,448l.5.5,1.8,1.8v-1.1L43,448l1.3-1.2v-1.1l-1.8,1.8Zm5.5-.5-1.8-1.8v1.1L47,448l-1.3,1.2v1.1l1.8-1.8.5-.5Z"/><polygon class="q" points="52.73 440 50 440 57.27 448.18 60 448.18 52.73 440"/><polygon class="q" points="60 440 57.27 440 50 448.18 52.73 448.18 60 440"/><circle class="f" cx="39.5" cy="343.5" r="1.5"/><path class="f" d="M39.5,339c-4.4,0-7.5,4.5-7.5,4.5s3.1,4.5,7.5,4.5,7.5-4.5,7.5-4.5S43.9,339,39.5,339Zm0,8a3.5,3.5,0,1,1,3.5-3.5A3.54,3.54,0,0,1,39.5,347Z"/><circle class="g" cx="11" cy="463" r="1"/><path class="g" d="M11,460c-2.9,0-5,3-5,3s2.1,3,5,3,5-3,5-3S13.9,460,11,460Zm0,5a2,2,0,1,1,2-2A2,2,0,0,1,11,465Z"/></svg>