<svg id="Layer_1" data-name="Layer 1" xmlns="http://www.w3.org/2000/svg" viewBox="0 0 480.99 97.76"><title>logo-darkai825o</title><path d="M53.46,39a2.1,2.1,0,0,1,2.38,2.38,2.3,2.3,0,0,1-.51,1.68,8.17,8.17,0,0,1-1.65,1.17,5.54,5.54,0,0,0-1.77,1.53,4.38,4.38,0,0,0-.63,2.58q0,7.77,4.42,19.55A124.73,124.73,0,0,0,65.21,88.2,54.05,54.05,0,0,0,71.5,76.83a116.1,116.1,0,0,0,5.34-15A47.85,47.85,0,0,0,79,49.57q0-2.77-.87-3.74a14.26,14.26,0,0,0-2.5-2.09A3,3,0,0,1,74,41.41Q74,39,77.36,39h9.33q3.4,0,3.4,2a3.54,3.54,0,0,1-.58,1.8,26.77,26.77,0,0,0-3.4,8.55l-1.8,6.56Q78.86,77.22,73,88a76.43,76.43,0,0,1-6.36,9.77,4.23,4.23,0,0,1-3,1.41q-3.79,0-9.3-11.71a213.12,213.12,0,0,1-8.82-21.33q-2,5.3-5.37,12.78a117.65,117.65,0,0,1-7.36,13.87q-4,6.39-6.75,6.39-3.3,0-10.35-14.92a134.71,134.71,0,0,1-10.35-35,8.25,8.25,0,0,0-2.21-5q-1.77-1.72-1.77-2.79Q1.33,39,4.53,39h11.9a5.28,5.28,0,0,1,2.62.41q0.58,0.41.58,2.36a1.82,1.82,0,0,1-.44,1.43,11.65,11.65,0,0,1-1.7,1,6.22,6.22,0,0,0-1.94,1.53,4,4,0,0,0-.68,2.55q0,5.49,4.76,21.33Q23.43,81.78,28,88.2A73.16,73.16,0,0,0,38.22,69q4.3-11.49,4.3-20.48A4.71,4.71,0,0,0,42,45.78a16.67,16.67,0,0,0-2.19-2,3.53,3.53,0,0,1-1.63-2.57q0-2.19,4-2.19H53.46Z" transform="translate(-1.2 -1.49)" style="fill:#231f20;stroke:#fff;stroke-miterlimit:10;stroke-width:0.25px"/><path d="M155.14,68.28a29.53,29.53,0,0,1-9.06,22,30.5,30.5,0,0,1-22.18,8.87A29.17,29.17,0,0,1,108.77,95a30.46,30.46,0,0,1-11-11.15,29.82,29.82,0,0,1-4.06-15.18,29.25,29.25,0,0,1,4.23-15.18A31.48,31.48,0,0,1,109.3,42.19,29.76,29.76,0,0,1,124.53,38,30.63,30.63,0,0,1,151,53.12,29.3,29.3,0,0,1,155.14,68.28ZM140,85.18q5.2-6.8,5.2-17.1,0-10.1-5.49-17t-15.4-6.9a18.67,18.67,0,0,0-11.49,3.5,20.79,20.79,0,0,0-6.95,9.16,33.2,33.2,0,0,0-2.26,12.41q0,10,5.34,17t15.16,6.95A19,19,0,0,0,140,85.18Z" transform="translate(-1.2 -1.49)" style="fill:#231f20;stroke:#fff;stroke-miterlimit:10;stroke-width:0.25px"/><path d="M168.07,17.12q0-3.55-4.37-5-2-.48-2-1.8a1.74,1.74,0,0,1,.39-1.12,3.48,3.48,0,0,1,1.14-.87l1.09-.58a44.93,44.93,0,0,1,5.34-2.43,15.88,15.88,0,0,1,5-1.36q2.57,0,2.58,4.76V82.22a25.94,25.94,0,0,0,.58,6.56,3.35,3.35,0,0,0,1.8,2.58L181,91.94q2.19,1.17,2.19,2.62,0,1.85-.66,2.31a5.36,5.36,0,0,1-2.75.46H165.49q-3.16,0-3.16-2.77,0-1.41,2-2.62l2.19-1q1.55-1.17,1.55-8.75V17.12Z" transform="translate(-1.2 -1.49)" style="fill:#231f20;stroke:#fff;stroke-miterlimit:10;stroke-width:0.25px"/><path d="M207.27,82q0,6.17.63,7.92a15.41,15.41,0,0,0,3,2q2.57,0.78,2.58,2.62,0,2.77-4.18,2.77H195.13a4.69,4.69,0,0,1-2.5-.46Q192,96.41,192,94.56q0-1.5,2.19-2.62l1.8-.78q2.19-1.41,2.19-9.13V45h-3a14.28,14.28,0,0,1-5.08-.63,2.51,2.51,0,0,1-1.48-2.57,2.15,2.15,0,0,1,1.31-2.26,16.32,16.32,0,0,1,5.05-.51h3.21q0-16.52,2-23.47a23.64,23.64,0,0,1,5.59-10,12.47,12.47,0,0,1,9.33-4,8.53,8.53,0,0,1,5.25,1.75A5.49,5.49,0,0,1,222.63,8a4.75,4.75,0,0,1-1.31,3.35,4.32,4.32,0,0,1-3.3,1.41,6.4,6.4,0,0,1-2-1q-2.33-2-3.74-2-5,0-5,15.3V39h7.38a11.31,11.31,0,0,1,4.13.49q1,0.49,1,2.48,0,3-5,3h-7.58V82Z" transform="translate(-1.2 -1.49)" style="fill:#231f20;stroke:#fff;stroke-miterlimit:10;stroke-width:0.25px"/><path d="M254.06,44.18q-8.31,0-12.92,8.16-4.57,7.14-4.57,17.93a23.57,23.57,0,0,0,5.17,15.23,16.73,16.73,0,0,0,13.73,6.44q9.71,0,15.3-6.75,2.43-2.77,4-2.77,2,0,2,2.19,0,3.11-4.76,7.34a25.85,25.85,0,0,1-18.12,7.19,27.1,27.1,0,0,1-14.5-3.81,25,25,0,0,1-9.47-10.49,33.45,33.45,0,0,1-3.28-14.94A34,34,0,0,1,230.4,54a29.68,29.68,0,0,1,10.66-11.68A28.52,28.52,0,0,1,256.63,38a23.23,23.23,0,0,1,13.55,4.18q5,3.35,5,7.58A5,5,0,0,1,273.86,53,3.74,3.74,0,0,1,271,54.53a4.1,4.1,0,0,1-2.6-.58,35.13,35.13,0,0,1-2.74-3.16,25.34,25.34,0,0,0-5.18-5.1A11.47,11.47,0,0,0,254.06,44.18Z" transform="translate(-1.2 -1.49)" style="fill:#231f20;stroke:#fff;stroke-miterlimit:10;stroke-width:0.25px"/><path d="M300.21,87.18q0,2.43,1,3.18A9.87,9.87,0,0,0,304,91.74q2.19,1.17,2.19,2.62,0,3-4.18,3H288.85q-4.18,0-4.18-3,0-1.55,2-2.43a10,10,0,0,0,3.06-1.41q1.12-.83,1.12-3.35V57.54q0-6.36-5.15-9-3-1-3-2.58t3.4-4.18Q290.79,38,292.83,38q3.16,0,4.4,4.35a106.58,106.58,0,0,1,2.41,11.39,34.88,34.88,0,0,1,6.95-10.59Q311.34,38,316.15,38q6.95,0,6.95,7.58,0,4.57-2.77,4.57a10,10,0,0,1-3.59-1.29,9.92,9.92,0,0,0-4-1.29q-4.42,0-8.94,7.77a23.35,23.35,0,0,0-3.6,12.92v18.9Z" transform="translate(-1.2 -1.49)" style="fill:#231f20;stroke:#fff;stroke-miterlimit:10;stroke-width:0.25px"/><path d="M389.32,68.28a29.53,29.53,0,0,1-9.06,22,30.5,30.5,0,0,1-22.18,8.87A29.17,29.17,0,0,1,342.94,95a30.46,30.46,0,0,1-11-11.15,29.82,29.82,0,0,1-4.06-15.18,29.25,29.25,0,0,1,4.23-15.18,31.48,31.48,0,0,1,11.39-11.29A29.76,29.76,0,0,1,358.71,38a30.64,30.64,0,0,1,26.48,15.11A29.31,29.31,0,0,1,389.32,68.28ZM374.21,85.18q5.2-6.8,5.2-17.1,0-10.1-5.49-17t-15.4-6.9A18.67,18.67,0,0,0,347,47.68a20.78,20.78,0,0,0-6.95,9.16,33.19,33.19,0,0,0-2.26,12.41q0,10,5.34,17t15.16,6.95A19,19,0,0,0,374.21,85.18Z" transform="translate(-1.2 -1.49)" style="fill:#231f20;stroke:#fff;stroke-miterlimit:10;stroke-width:0.25px"/><path d="M445.43,39a2.1,2.1,0,0,1,2.38,2.38,2.31,2.31,0,0,1-.51,1.68,8.17,8.17,0,0,1-1.65,1.17,5.53,5.53,0,0,0-1.77,1.53,4.37,4.37,0,0,0-.63,2.58q0,7.77,4.42,19.55a124.73,124.73,0,0,0,9.52,20.28,54.05,54.05,0,0,0,6.29-11.37,116,116,0,0,0,5.34-15,47.84,47.84,0,0,0,2.11-12.27q0-2.77-.87-3.74a14.25,14.25,0,0,0-2.5-2.09,3,3,0,0,1-1.63-2.33q0-2.38,3.4-2.38h9.33q3.4,0,3.4,2a3.54,3.54,0,0,1-.58,1.8,26.76,26.76,0,0,0-3.4,8.55l-1.8,6.56Q470.84,77.22,465,88a76.54,76.54,0,0,1-6.36,9.77,4.22,4.22,0,0,1-3,1.41q-3.79,0-9.3-11.71a213.34,213.34,0,0,1-8.82-21.33q-2,5.3-5.37,12.78a117.65,117.65,0,0,1-7.36,13.87q-4,6.39-6.75,6.39-3.3,0-10.35-14.92a134.75,134.75,0,0,1-10.35-35,8.24,8.24,0,0,0-2.21-5q-1.77-1.72-1.77-2.79,0-2.38,3.21-2.38h11.9a5.28,5.28,0,0,1,2.62.41q0.58,0.41.58,2.36a1.82,1.82,0,0,1-.44,1.43,11.68,11.68,0,0,1-1.7,1,6.22,6.22,0,0,0-1.94,1.53,4,4,0,0,0-.68,2.55q0,5.49,4.76,21.33,3.79,12.1,8.36,18.51A73.16,73.16,0,0,0,430.2,69q4.3-11.49,4.3-20.48a4.71,4.71,0,0,0-.56-2.77,16.67,16.67,0,0,0-2.19-2,3.54,3.54,0,0,1-1.63-2.57q0-2.19,4-2.19h11.32Z" transform="translate(-1.2 -1.49)" style="fill:#231f20;stroke:#fff;stroke-miterlimit:10;stroke-width:0.25px"/></svg>